<?xml version="1.0" encoding="utf-8"?>
<!-- Generator: Adobe Illustrator 23.0.3, SVG Export Plug-In . SVG Version: 6.00 Build 0)  -->
<svg version="1.1" id="Layer_1" xmlns="http://www.w3.org/2000/svg" xmlns:xlink="http://www.w3.org/1999/xlink" x="0px" y="0px"
	 viewBox="0 0 1080 1080" style="enable-background:new 0 0 1080 1080;" xml:space="preserve">
<style type="text/css">
	.st0{fill:#FFFFFF;}
</style>
<path id="Path_2040" class="st0" d="M711,405L535.5,580.5L360,405c-16.6-17.4-44.1-18.1-61.5-1.5c-0.5,0.5-1,1-1.5,1.5
	c-17.4,16.6-18.1,44.1-1.5,61.5c0.5,0.5,1,1,1.5,1.5l207,207c16.6,17.4,44.1,18.1,61.5,1.5c0.5-0.5,1-1,1.5-1.5l207-207
	c17.6-17.2,17.9-45.4,0.7-63s-45.4-17.9-63-0.7C711.5,404.5,711.2,404.8,711,405z"/>
</svg>
