<?xml version="1.0" encoding="utf-8"?>
<!-- Generator: Adobe Illustrator 23.0.3, SVG Export Plug-In . SVG Version: 6.00 Build 0)  -->
<svg version="1.1" id="Layer_1" xmlns="http://www.w3.org/2000/svg" xmlns:xlink="http://www.w3.org/1999/xlink" x="0px" y="0px"
	 viewBox="0 0 1920 1080" style="enable-background:new 0 0 1920 1080;" xml:space="preserve">
<style type="text/css">
	.st0{opacity:3.000000e-02;}
	.st1{fill:#414182;}
</style>
<g class="st0">
	<circle class="st1" cx="683.1" cy="370.4" r="55.3"/>
	<circle class="st1" cx="1748.2" cy="962.5" r="55.3"/>
	<circle class="st1" cx="583.4" cy="710.2" r="43.8"/>
	<circle class="st1" cx="318.3" cy="804.5" r="43.8"/>
	<circle class="st1" cx="801.5" cy="10" r="118.4"/>
	<circle class="st1" cx="1002.2" cy="1151.5" r="91.7"/>
	<circle class="st1" cx="888" cy="820.8" r="86.5"/>
	<circle class="st1" cx="1437.8" cy="779" r="86.5"/>
	<circle class="st1" cx="1363.1" cy="145.3" r="67.9"/>
	<circle class="st1" cx="1719.4" cy="481.4" r="70.8"/>
	<circle class="st1" cx="1487.3" cy="343.7" r="49.5"/>
	<path class="st1" d="M1503,1143.5l-44.5-44.5l44.5-44.5c6.3-6.3,6.3-16.6,0-23l0,0c-6.3-6.3-16.6-6.3-23,0l-44.5,44.5l-44.5-44.5
		c-6.3-6.3-16.6-6.3-23,0l0,0c-6.3,6.3-6.3,16.6,0,23l44.5,44.5l-44.5,44.5c-6.3,6.3-6.3,16.6,0,23l0,0c6.3,6.3,16.6,6.3,23,0
		l44.5-44.5l44.5,44.5c6.3,6.3,16.6,6.3,23,0l0,0C1509.4,1160.1,1509.4,1149.8,1503,1143.5z"/>
	<path class="st1" d="M136.4,669.2l-47.8-47.8l47.8-47.8c6.8-6.8,6.8-17.9,0-24.7l0,0c-6.8-6.8-17.9-6.8-24.7,0l-47.8,47.8
		l-47.8-47.8c-6.8-6.8-17.9-6.8-24.7,0l0,0c-6.8,6.8-6.8,17.9,0,24.7l47.8,47.8l-47.8,47.8c-6.8,6.8-6.8,17.9,0,24.7l0,0
		c6.8,6.8,17.9,6.8,24.7,0l47.8-47.8l47.8,47.8c6.8,6.8,17.9,6.8,24.7,0l0,0C143.2,687.1,143.2,676,136.4,669.2z"/>
	<path class="st1" d="M574.5,921.5L544,891l30.5-30.5c4.4-4.4,4.4-11.4,0-15.8l0,0c-4.4-4.4-11.4-4.4-15.8,0l-30.5,30.5l-30.5-30.5
		c-4.4-4.4-11.4-4.4-15.8,0l0,0c-4.4,4.4-4.4,11.4,0,15.8l30.5,30.5l-30.5,30.5c-4.4,4.4-4.4,11.4,0,15.8l0,0
		c4.4,4.4,11.4,4.4,15.8,0l30.5-30.5l30.5,30.5c4.4,4.4,11.4,4.4,15.8,0l0,0C578.8,933,578.8,925.9,574.5,921.5z"/>
	<path class="st1" d="M803.3,1010.5l-20.4-20.4l20.4-20.4c2.9-2.9,2.9-7.6,0-10.5l0,0c-2.9-2.9-7.6-2.9-10.5,0l-20.4,20.4L752,959.2
		c-2.9-2.9-7.6-2.9-10.5,0l0,0c-2.9,2.9-2.9,7.6,0,10.5l20.4,20.4l-20.4,20.4c-2.9,2.9-2.9,7.6,0,10.5l0,0c2.9,2.9,7.6,2.9,10.5,0
		l20.4-20.4l20.4,20.4c2.9,2.9,7.6,2.9,10.5,0l0,0C806.2,1018.2,806.2,1013.5,803.3,1010.5z"/>
	<path class="st1" d="M322.1,327l-32.8-32.8l32.8-32.8c4.7-4.7,4.7-12.3,0-16.9l0,0c-4.7-4.7-12.3-4.7-16.9,0l-32.8,32.8l-32.8-32.8
		c-4.7-4.7-12.3-4.7-16.9,0l0,0c-4.7,4.7-4.7,12.3,0,16.9l32.8,32.8L222.6,327c-4.7,4.7-4.7,12.3,0,16.9l0,0
		c4.7,4.7,12.3,4.7,16.9,0l32.8-32.8l32.8,32.8c4.7,4.7,12.3,4.7,16.9,0l0,0C326.8,339.2,326.8,331.7,322.1,327z"/>
	<path class="st1" d="M1053.4,391.8l-21.4-21.4l21.4-21.4c3.1-3.1,3.1-8,0-11.1l0,0c-3.1-3.1-8-3.1-11.1,0l-21.4,21.4L999.6,338
		c-3.1-3.1-8-3.1-11.1,0l0,0c-3.1,3.1-3.1,8,0,11.1l21.4,21.4l-21.4,21.4c-3.1,3.1-3.1,8,0,11.1l0,0c3.1,3.1,8,3.1,11.1,0l21.4-21.4
		l21.4,21.4c3.1,3.1,8,3.1,11.1,0l0,0C1056.5,399.8,1056.5,394.9,1053.4,391.8z"/>
	<path class="st1" d="M914.2,548.7l-54.1-15l15-54.1c2.1-7.7-2.4-15.7-10.1-17.8l0,0c-7.7-2.1-15.7,2.4-17.8,10.1l-15,54.1l-54.1-15
		c-7.7-2.1-15.7,2.4-17.8,10.1l0,0c-2.1,7.7,2.4,15.7,10.1,17.8l54.1,15l-15,54.1c-2.1,7.7,2.4,15.7,10.1,17.8l0,0
		c7.7,2.1,15.7-2.4,17.8-10.1l15-54.1l54.1,15c7.7,2.1,15.7-2.4,17.8-10.1l0,0C926.4,558.9,921.9,550.9,914.2,548.7z"/>
	<path class="st1" d="M1710.6,122.7l-55.7,6.5l-6.5-55.7c-0.9-7.9-8.1-13.6-16.1-12.7l0,0c-7.9,0.9-13.6,8.1-12.7,16.1l6.5,55.7
		l-55.7,6.5c-7.9,0.9-13.6,8.1-12.7,16.1l0,0c0.9,7.9,8.1,13.6,16.1,12.7l55.7-6.5l6.5,55.7c0.9,7.9,8.1,13.6,16.1,12.7l0,0
		c7.9-0.9,13.6-8.1,12.7-16.1l-6.5-55.7l55.7-6.5c7.9-0.9,13.6-8.1,12.7-16.1l0,0C1725.7,127.5,1718.6,121.8,1710.6,122.7z"/>
	<path class="st1" d="M1928.3,295.3l-36.5-28.9l28.9-36.5c4.1-5.2,3.2-12.8-2-16.9l0,0c-5.2-4.1-12.8-3.2-16.9,2l-28.9,36.5
		l-36.5-28.9c-5.2-4.1-12.8-3.2-16.9,2l0,0c-4.1,5.2-3.2,12.8,2,16.9l36.5,28.9l-28.9,36.5c-4.1,5.2-3.2,12.8,2,16.9l0,0
		c5.2,4.1,12.8,3.2,16.9-2l28.9-36.5l36.5,28.9c5.2,4.1,12.8,3.2,16.9-2l0,0C1934.4,307,1933.5,299.5,1928.3,295.3z"/>
	<path class="st1" d="M1313.5,540.4l15.9-43.7l43.7,15.9c6.2,2.3,13.1-0.9,15.4-7.2l0,0c2.3-6.2-0.9-13.1-7.2-15.4l-43.7-15.9
		l15.9-43.7c2.3-6.2-0.9-13.1-7.2-15.4l0,0c-6.2-2.3-13.1,0.9-15.4,7.2l-15.9,43.7l-43.7-15.9c-6.2-2.3-13.1,0.9-15.4,7.2l0,0
		c-2.3,6.2,0.9,13.1,7.2,15.4l43.7,15.9l-15.9,43.7c-2.3,6.2,0.9,13.1,7.2,15.4l0,0C1304.3,549.9,1311.2,546.7,1313.5,540.4z"/>
	<path class="st1" d="M1739.5,751l-18.9-50.3l50.3-18.9c7.2-2.7,10.8-10.7,8.1-17.9l0,0c-2.7-7.2-10.7-10.8-17.9-8.1l-50.3,18.9
		l-18.9-50.3c-2.7-7.2-10.7-10.8-17.9-8.1l0,0c-7.2,2.7-10.8,10.7-8.1,17.9l18.9,50.3l-50.3,18.9c-7.2,2.7-10.8,10.7-8.1,17.9l0,0
		c2.7,7.2,10.7,10.8,17.9,8.1l50.3-18.9l18.9,50.3c2.7,7.2,10.7,10.8,17.9,8.1l0,0C1738.6,766.1,1742.2,758.1,1739.5,751z"/>
	<g>
		<g>
			<path class="st1" d="M107.5,454l-24.4-12.6c-2-1-2.8-3.5-1.8-5.5l0,0c1-2,3.5-2.8,5.5-1.8l21.5,11.1c0.9,0.5,2,0.6,3,0.3
				l27.3-7.5c1-0.3,2.1-0.2,3,0.3l25.2,13c0.9,0.5,2,0.6,3,0.3l27.3-7.5c1-0.3,2.1-0.2,3,0.3l24.4,12.6c2,1,2.8,3.5,1.8,5.5l0,0
				c-1,2-3.5,2.8-5.5,1.8l-21.5-11.1c-0.9-0.5-2-0.6-3-0.3l-27.3,7.5c-1,0.3-2.1,0.2-3-0.3l-25.2-13c-0.9-0.5-2-0.6-3-0.3l-27.3,7.5
				C109.5,454.6,108.4,454.5,107.5,454z"/>
		</g>
	</g>
	<g>
		<g>
			<path class="st1" d="M420.4,532.8L396,520.2c-2-1-2.8-3.5-1.8-5.5l0,0c1-2,3.5-2.8,5.5-1.8l21.5,11.1c0.9,0.5,2,0.6,3,0.3
				l27.3-7.5c1-0.3,2.1-0.2,3,0.3l25.2,13c0.9,0.5,2,0.6,3,0.3l27.3-7.5c1-0.3,2.1-0.2,3,0.3l24.4,12.6c2,1,2.8,3.5,1.8,5.5l0,0
				c-1,2-3.5,2.8-5.5,1.8L512.1,532c-0.9-0.5-2-0.6-3-0.3l-27.3,7.5c-1,0.3-2.1,0.2-3-0.3l-25.2-13c-0.9-0.5-2-0.6-3-0.3l-27.3,7.5
				C422.4,533.4,421.3,533.2,420.4,532.8z"/>
		</g>
	</g>
	<g>
		<g>
			<path class="st1" d="M522.2,219.9l-26.1,8.3c-2.2,0.7-4.5-0.5-5.1-2.7l0,0c-0.7-2.2,0.5-4.5,2.7-5.1l23.1-7.4
				c1-0.3,1.8-1,2.3-1.9l14-24.6c0.5-0.9,1.3-1.6,2.3-1.9l27-8.6c1-0.3,1.8-1,2.3-1.9l14-24.6c0.5-0.9,1.3-1.6,2.3-1.9l26.1-8.3
				c2.2-0.7,4.5,0.5,5.1,2.7l0,0c0.7,2.2-0.5,4.5-2.7,5.1l-23.1,7.4c-1,0.3-1.8,1-2.3,1.9l-14,24.6c-0.5,0.9-1.3,1.6-2.3,1.9
				l-27,8.6c-1,0.3-1.8,1-2.3,1.9l-14,24.6C524,218.9,523.1,219.6,522.2,219.9z"/>
		</g>
	</g>
	<g>
		<g>
			<path class="st1" d="M328,35.9l-36.1-18.7c-3-1.5-4.1-5.2-2.6-8.2l0,0c1.5-3,5.2-4.1,8.2-2.6l31.9,16.5c1.4,0.7,2.9,0.9,4.4,0.5
				l40.5-11.1c1.5-0.4,3-0.2,4.4,0.5L416,32c1.4,0.7,2.9,0.9,4.4,0.5l40.5-11.1c1.5-0.4,3-0.2,4.4,0.5l36.1,18.7
				c3,1.5,4.1,5.2,2.6,8.2l0,0c-1.5,3-5.2,4.2-8.2,2.6l-31.9-16.5c-1.4-0.7-2.9-0.9-4.4-0.5L419,45.5c-1.5,0.4-3,0.2-4.4-0.5
				l-37.3-19.3c-1.4-0.7-2.9-0.9-4.4-0.5l-40.5,11.1C330.9,36.8,329.3,36.6,328,35.9z"/>
		</g>
	</g>
	<g>
		<g>
			<path class="st1" d="M1047.6,188.5l-24.4-12.6c-2-1-2.8-3.5-1.8-5.5l0,0c1-2,3.5-2.8,5.5-1.8l21.5,11.1c0.9,0.5,2,0.6,3,0.3
				l27.3-7.5c1-0.3,2.1-0.2,3,0.3l25.2,13c0.9,0.5,2,0.6,3,0.3l27.3-7.5c1-0.3,2.1-0.2,3,0.3l24.4,12.6c2,1,2.8,3.5,1.8,5.5l0,0
				c-1,2-3.5,2.8-5.5,1.8l-21.5-11.1c-0.9-0.5-2-0.6-3-0.3L1109,195c-1,0.3-2.1,0.2-3-0.3l-25.2-13c-0.9-0.5-2-0.6-3-0.3l-27.3,7.5
				C1049.5,189.1,1048.5,189,1047.6,188.5z"/>
		</g>
	</g>
	<g>
		<g>
			<path class="st1" d="M1080.2,583.7l-24.4-12.6c-2-1-2.8-3.5-1.8-5.5l0,0c1-2,3.5-2.8,5.5-1.8l21.5,11.1c0.9,0.5,2,0.6,3,0.3
				l27.3-7.5c1-0.3,2.1-0.2,3,0.3l25.2,13c0.9,0.5,2,0.6,3,0.3l27.3-7.5c1-0.3,2.1-0.2,3,0.3l24.4,12.6c2,1,2.8,3.5,1.8,5.5l0,0
				c-1,2-3.5,2.8-5.5,1.8l-21.5-11.1c-0.9-0.5-2-0.6-3-0.3l-27.3,7.5c-1,0.3-2.1,0.2-3-0.3l-25.2-13c-0.9-0.5-2-0.6-3-0.3l-27.3,7.5
				C1082.2,584.3,1081.1,584.2,1080.2,583.7z"/>
		</g>
	</g>
	<g>
		<g>
			<path class="st1" d="M216,993.1l-26.1,8.3c-2.2,0.7-4.5-0.5-5.1-2.7l0,0c-0.7-2.2,0.5-4.5,2.7-5.1l23.1-7.4c1-0.3,1.8-1,2.3-1.9
				l14-24.6c0.5-0.9,1.3-1.6,2.3-1.9l27-8.6c1-0.3,1.8-1,2.3-1.9l14-24.6c0.5-0.9,1.3-1.6,2.3-1.9l26.1-8.3c2.2-0.7,4.5,0.5,5.1,2.7
				l0,0c0.7,2.2-0.5,4.5-2.7,5.1l-23.1,7.4c-1,0.3-1.8,1-2.3,1.9l-14,24.6c-0.5,0.9-1.3,1.6-2.3,1.9l-27,8.6c-1,0.3-1.8,1-2.3,1.9
				l-14,24.6C217.8,992.1,217,992.7,216,993.1z"/>
		</g>
	</g>
	<g>
		<g>
			<path class="st1" d="M1136.8,872.9l-19.2-19.6c-1.6-1.6-1.5-4.2,0.1-5.8l0,0c1.6-1.6,4.2-1.5,5.8,0.1l16.9,17.4
				c0.7,0.7,1.7,1.2,2.7,1.2l28.3,1.5c1,0.1,2,0.5,2.7,1.2l19.8,20.3c0.7,0.7,1.7,1.2,2.7,1.2l28.3,1.5c1,0.1,2,0.5,2.7,1.2
				l19.2,19.6c1.6,1.6,1.5,4.2-0.1,5.8l0,0c-1.6,1.6-4.2,1.5-5.8-0.1L1224,901c-0.7-0.7-1.7-1.2-2.7-1.2l-28.3-1.5
				c-1-0.1-2-0.5-2.7-1.2l-19.8-20.3c-0.7-0.7-1.7-1.2-2.7-1.2l-28.3-1.5C1138.5,874.1,1137.5,873.6,1136.8,872.9z"/>
		</g>
	</g>
	<g>
		<g>
			<path class="st1" d="M1892.7,793.7l-24.4-12.6c-2-1-2.8-3.5-1.8-5.5l0,0c1-2,3.5-2.8,5.5-1.8l21.5,11.1c0.9,0.5,2,0.6,3,0.3
				l27.3-7.5c1-0.3,2.1-0.2,3,0.3l25.2,13c0.9,0.5,2,0.6,3,0.3l27.3-7.5c1-0.3,2.1-0.2,3,0.3l24.4,12.6c2,1,2.8,3.5,1.8,5.5l0,0
				c-1,2-3.5,2.8-5.5,1.8l-21.5-11.1c-0.9-0.5-2-0.6-3-0.3l-27.3,7.5c-1,0.3-2.1,0.2-3-0.3l-25.2-13c-0.9-0.5-2-0.6-3-0.3l-27.3,7.5
				C1894.7,794.3,1893.6,794.2,1892.7,793.7z"/>
		</g>
	</g>
	<g>
		<g>
			<path class="st1" d="M1.5,809.3l-24.4-12.6c-2-1-2.8-3.5-1.8-5.5l0,0c1-2,3.5-2.8,5.5-1.8l21.5,11.1c0.9,0.5,2,0.6,3,0.3
				l27.3-7.5c1-0.3,2.1-0.2,3,0.3l25.2,13c0.9,0.5,2,0.6,3,0.3l27.3-7.5c1-0.3,2.1-0.2,3,0.3l24.4,12.6c2,1,2.8,3.5,1.8,5.5l0,0
				c-1,2-3.5,2.8-5.5,1.8l-21.5-11.1c-0.9-0.5-2-0.6-3-0.3L63,815.7c-1,0.3-2.1,0.2-3-0.3l-25.2-13c-0.9-0.5-2-0.6-3-0.3l-27.3,7.5
				C3.5,809.9,2.4,809.7,1.5,809.3z"/>
		</g>
	</g>
	<g>
		<g>
			<path class="st1" d="M453.1,1085.6l-35.2-18.2c-2.9-1.5-4-5.1-2.5-8l0,0c1.5-2.9,5.1-4,8-2.5l31.1,16.1c1.3,0.7,2.8,0.8,4.3,0.4
				l39.4-10.8c1.4-0.4,3-0.2,4.3,0.4l36.3,18.8c1.3,0.7,2.8,0.8,4.3,0.4l39.4-10.8c1.4-0.4,3-0.2,4.3,0.4L622,1090
				c2.9,1.5,4,5.1,2.5,8l0,0c-1.5,2.9-5.1,4-8,2.5l-31.1-16.1c-1.3-0.7-2.8-0.8-4.3-0.4l-39.4,10.8c-1.4,0.4-3,0.2-4.3-0.4
				l-36.3-18.8c-1.3-0.7-2.8-0.8-4.3-0.4l-39.4,10.8C455.9,1086.4,454.4,1086.3,453.1,1085.6z"/>
		</g>
	</g>
</g>
<g class="st0">
	<g>
		<path class="st1" d="M673.1,418.7c-32.1,0-58.3-26.2-58.3-58.3c0-32.1,26.2-58.3,58.3-58.3c32.1,0,58.3,26.2,58.3,58.3
			C731.4,392.5,705.2,418.7,673.1,418.7z M673.1,308.1c-28.8,0-52.3,23.5-52.3,52.3s23.5,52.3,52.3,52.3s52.3-23.5,52.3-52.3
			S701.9,308.1,673.1,308.1z"/>
	</g>
	<g>
		<path class="st1" d="M1738.2,1010.8c-32.1,0-58.3-26.2-58.3-58.3s26.2-58.3,58.3-58.3s58.3,26.2,58.3,58.3
			S1770.3,1010.8,1738.2,1010.8z M1738.2,900.2c-28.8,0-52.3,23.5-52.3,52.3s23.5,52.3,52.3,52.3s52.3-23.5,52.3-52.3
			S1767,900.2,1738.2,900.2z"/>
	</g>
	<g>
		<path class="st1" d="M573.4,747c-25.8,0-46.8-21-46.8-46.8s21-46.8,46.8-46.8s46.8,21,46.8,46.8S599.2,747,573.4,747z
			 M573.4,659.4c-22.5,0-40.8,18.3-40.8,40.8s18.3,40.8,40.8,40.8c22.5,0,40.8-18.3,40.8-40.8S595.9,659.4,573.4,659.4z"/>
	</g>
	<g>
		<path class="st1" d="M308.3,841.3c-25.8,0-46.8-21-46.8-46.8s21-46.8,46.8-46.8s46.8,21,46.8,46.8S334.1,841.3,308.3,841.3z
			 M308.3,753.7c-22.5,0-40.8,18.3-40.8,40.8s18.3,40.8,40.8,40.8c22.5,0,40.8-18.3,40.8-40.8S330.8,753.7,308.3,753.7z"/>
	</g>
	<g>
		<path class="st1" d="M791.5,121.4c-66.9,0-121.4-54.5-121.4-121.4s54.5-121.4,121.4-121.4S912.9-66.9,912.9,0
			S858.4,121.4,791.5,121.4z M791.5-115.4c-63.6,0-115.4,51.8-115.4,115.4s51.8,115.4,115.4,115.4S906.9,63.6,906.9,0
			S855.1-115.4,791.5-115.4z"/>
	</g>
	<g>
		<path class="st1" d="M992.2,1236.2c-52.2,0-94.7-42.5-94.7-94.7s42.5-94.7,94.7-94.7s94.7,42.5,94.7,94.7
			S1044.4,1236.2,992.2,1236.2z M992.2,1052.8c-48.9,0-88.7,39.8-88.7,88.7s39.8,88.7,88.7,88.7c48.9,0,88.7-39.8,88.7-88.7
			S1041.1,1052.8,992.2,1052.8z"/>
	</g>
	<g>
		<path class="st1" d="M878,900.3c-49.4,0-89.5-40.1-89.5-89.5s40.1-89.5,89.5-89.5s89.5,40.1,89.5,89.5S927.4,900.3,878,900.3z
			 M878,727.3c-46,0-83.5,37.5-83.5,83.5s37.5,83.5,83.5,83.5s83.5-37.5,83.5-83.5S924,727.3,878,727.3z"/>
	</g>
	<g>
		<path class="st1" d="M1427.8,858.5c-49.4,0-89.5-40.1-89.5-89.5s40.1-89.5,89.5-89.5s89.5,40.1,89.5,89.5
			S1477.2,858.5,1427.8,858.5z M1427.8,685.5c-46,0-83.5,37.5-83.5,83.5s37.5,83.5,83.5,83.5s83.5-37.5,83.5-83.5
			S1473.8,685.5,1427.8,685.5z"/>
	</g>
	<g>
		<path class="st1" d="M1353.1,206.2c-39.1,0-70.9-31.8-70.9-70.9c0-39.1,31.8-70.9,70.9-70.9c39.1,0,70.9,31.8,70.9,70.9
			C1424,174.4,1392.2,206.2,1353.1,206.2z M1353.1,70.4c-35.8,0-64.9,29.1-64.9,64.9s29.1,64.9,64.9,64.9s64.9-29.1,64.9-64.9
			S1388.9,70.4,1353.1,70.4z"/>
	</g>
	<g>
		<path class="st1" d="M1709.4,545.2c-40.7,0-73.8-33.1-73.8-73.8c0-40.7,33.1-73.8,73.8-73.8c40.7,0,73.8,33.1,73.8,73.8
			C1783.2,512.1,1750.1,545.2,1709.4,545.2z M1709.4,403.6c-37.4,0-67.8,30.4-67.8,67.8c0,37.4,30.4,67.8,67.8,67.8
			c37.4,0,67.8-30.4,67.8-67.8C1777.2,434,1746.8,403.6,1709.4,403.6z"/>
	</g>
	<g>
		<path class="st1" d="M1477.3,386.2c-28.9,0-52.5-23.6-52.5-52.5s23.6-52.5,52.5-52.5s52.5,23.6,52.5,52.5
			S1506.2,386.2,1477.3,386.2z M1477.3,287.2c-25.6,0-46.5,20.9-46.5,46.5s20.9,46.5,46.5,46.5s46.5-20.9,46.5-46.5
			S1502.9,287.2,1477.3,287.2z"/>
	</g>
	<g>
		<path class="st1" d="M1481.5,1164.2c-4.9,0-9.9-1.9-13.6-5.6l-42.4-42.4l-42.4,42.4c-7.6,7.5-19.8,7.5-27.2,0
			c-7.5-7.6-7.5-19.8,0-27.2l42.4-42.4l-42.4-42.4c-7.5-7.6-7.5-19.8,0-27.2c7.6-7.5,19.8-7.5,27.2,0l42.4,42.4l42.4-42.4
			c7.6-7.5,19.8-7.5,27.2,0c7.5,7.6,7.5,19.8,0,27.2l-42.4,42.4l42.4,42.4c3.6,3.6,5.7,8.4,5.7,13.5c0,5.2-2,10.1-5.7,13.7
			C1491.3,1162.3,1486.4,1164.2,1481.5,1164.2z M1369.5,1019.8c-3.4,0-6.8,1.3-9.4,3.9c-5.1,5.1-5.1,13.5,0,18.8l46.6,46.6
			l-46.6,46.6c-5.1,5.1-5.1,13.6,0,18.8c5.1,5.1,13.5,5.1,18.8,0l46.6-46.6l46.6,46.6c5.1,5.1,13.6,5.1,18.8,0
			c2.5-2.5,3.9-5.9,3.9-9.5c0-3.5-1.4-6.8-3.9-9.3l0,0l-46.6-46.6l46.6-46.6c5.1-5.1,5.1-13.6,0-18.8c-5.1-5.1-13.5-5.1-18.8,0
			l-46.6,46.6l-46.6-46.6C1376.3,1021.1,1372.9,1019.8,1369.5,1019.8z"/>
	</g>
	<g>
		<path class="st1" d="M114,692c-5.2,0-10.5-2-14.5-6l-45.7-45.7L8.2,686c-8,8-21,8-28.9,0s-8-21,0-28.9L25,611.4l-45.7-45.7
			c-8-8-8-21,0-28.9c8-8,21-8,28.9,0l45.7,45.7l45.7-45.7c8-8,21-8,28.9,0c3.9,3.9,6,9,6,14.5s-2.1,10.6-6,14.5l-45.7,45.7
			l45.7,45.7c3.9,3.9,6,9,6,14.5s-2.1,10.6-6,14.5C124.5,690,119.3,692,114,692z M53.9,631.9l49.9,49.9c5.6,5.6,14.8,5.6,20.5,0
			c2.7-2.7,4.2-6.4,4.2-10.2s-1.5-7.5-4.2-10.2l-49.9-49.9l49.9-49.9c2.7-2.7,4.2-6.4,4.2-10.2s-1.5-7.5-4.2-10.2
			c-5.6-5.6-14.8-5.6-20.5,0l-49.9,49.9L4,541c-5.6-5.6-14.8-5.6-20.5,0c-5.6,5.6-5.6,14.8,0,20.5l49.9,49.9l-49.9,49.9
			c-5.6,5.6-5.6,14.8,0,20.5c5.6,5.6,14.8,5.6,20.5,0L53.9,631.9z"/>
	</g>
	<g>
		<path class="st1" d="M556.6,933.6c-3.8,0-7.3-1.5-10-4.2L518.2,901l-28.4,28.4c-2.7,2.7-6.3,4.2-10,4.2s-7.3-1.5-10-4.2
			c-2.7-2.7-4.2-6.3-4.2-10s1.5-7.3,4.2-10l28.4-28.4l-28.4-28.4c-2.7-2.7-4.2-6.3-4.2-10s1.5-7.3,4.2-10c2.7-2.7,6.3-4.2,10-4.2
			s7.3,1.5,10,4.2l28.4,28.4l28.4-28.4c2.7-2.7,6.3-4.2,10-4.2s7.3,1.5,10,4.2c2.7,2.7,4.2,6.3,4.2,10s-1.5,7.3-4.2,10L538.2,881
			l28.4,28.4c5.4,5.6,5.4,14.6,0,20C563.9,932.1,560.4,933.6,556.6,933.6z M518.2,892.6l32.6,32.6c1.6,1.6,3.6,2.4,5.8,2.4
			s4.2-0.9,5.8-2.4c3.1-3.1,3.1-8.3,0-11.6L529.8,881l32.6-32.6c1.6-1.6,2.4-3.6,2.4-5.8s-0.9-4.2-2.4-5.8c-1.6-1.6-3.6-2.4-5.8-2.4
			s-4.2,0.9-5.8,2.4l-32.6,32.6l-32.6-32.6c-1.6-1.6-3.6-2.4-5.8-2.4s-4.2,0.9-5.8,2.4c-1.6,1.6-2.4,3.6-2.4,5.8s0.9,4.2,2.4,5.8
			l32.6,32.6L474,913.6c-1.6,1.6-2.4,3.6-2.4,5.8s0.9,4.2,2.4,5.8c1.6,1.6,3.6,2.4,5.8,2.4s4.2-0.9,5.8-2.4L518.2,892.6z"/>
	</g>
	<g>
		<path class="st1" d="M788,1016.2c-2.8,0-5.4-1.1-7.4-3.1l-18.3-18.3l-18.3,18.3c-2,2-4.6,3.1-7.4,3.1s-5.4-1.1-7.4-3.1
			c-4.1-4.1-4.1-10.7,0-14.7l18.3-18.3l-18.3-18.3c-2-2-3.1-4.6-3.1-7.4c0-2.8,1.1-5.4,3.1-7.4c2-2,4.6-3.1,7.4-3.1s5.4,1.1,7.4,3.1
			l18.3,18.3l18.3-18.3c2-2,4.6-3.1,7.4-3.1c2.8,0,5.4,1.1,7.4,3.1c2,2,3.1,4.6,3.1,7.4c0,2.8-1.1,5.4-3.1,7.4l-18.3,18.3l18.3,18.3
			c1.9,2,3,4.6,3,7.4c0,2.8-1.1,5.4-3.1,7.3C793.5,1015.1,790.8,1016.2,788,1016.2z M762.4,986.4l22.5,22.5c0.8,0.8,1.9,1.3,3.1,1.3
			c1.2,0,2.3-0.5,3.1-1.3c0.8-0.8,1.3-1.9,1.3-3.1c0-1.2-0.5-2.3-1.3-3.2l-22.5-22.5l22.5-22.5c0.8-0.8,1.3-1.9,1.3-3.1
			s-0.5-2.3-1.3-3.1c-0.8-0.8-1.9-1.3-3.1-1.3c-1.2,0-2.3,0.5-3.1,1.3l-22.5,22.5l-22.5-22.5c-0.8-0.8-1.9-1.3-3.1-1.3
			s-2.3,0.5-3.1,1.3c-0.8,0.8-1.3,1.9-1.3,3.1s0.5,2.3,1.3,3.1l22.5,22.5l-22.5,22.5c-1.7,1.7-1.7,4.5,0,6.3
			c0.8,0.8,1.9,1.3,3.1,1.3s2.3-0.5,3.1-1.3L762.4,986.4z"/>
	</g>
	<g>
		<path class="st1" d="M303.6,340.4c-4,0-7.8-1.6-10.6-4.4l-30.7-30.7L231.6,336c-2.8,2.8-6.5,4.4-10.5,4.4c0,0-0.1,0-0.1,0
			c-4,0-7.8-1.6-10.6-4.4c-2.8-2.8-4.4-6.5-4.4-10.5c0-4,1.5-7.8,4.4-10.7l30.8-30.7l-30.7-30.7c-2.8-2.8-4.4-6.5-4.4-10.5
			c0-4,1.5-7.8,4.4-10.7c2.7-2.8,6.5-4.4,10.5-4.4c4,0,7.8,1.5,10.7,4.4l30.7,30.7l30.7-30.7c2.7-2.8,6.5-4.4,10.5-4.4
			c4,0,7.8,1.5,10.7,4.4c2.8,2.8,4.4,6.5,4.4,10.5c0,4-1.5,7.8-4.4,10.7l-30.7,30.7l30.7,30.7c2.9,2.9,4.4,6.6,4.4,10.6
			c0,4-1.6,7.7-4.5,10.6C311.4,338.8,307.7,340.4,303.6,340.4C303.6,340.4,303.6,340.4,303.6,340.4z M262.3,296.9l34.9,34.9
			c1.7,1.7,4,2.6,6.4,2.6c0,0,0,0,0,0c2.4,0,4.6-0.9,6.2-2.6c1.8-1.7,2.7-4,2.8-6.4c0-2.4-0.9-4.6-2.6-6.3l-34.9-34.9l34.9-34.9
			c1.7-1.7,2.7-4,2.6-6.4c0-2.4-0.9-4.6-2.6-6.2c-1.7-1.7-4-2.7-6.4-2.7c0,0,0,0,0,0c-2.4,0-4.6,0.9-6.2,2.6l-34.9,34.9l-34.9-34.9
			c-1.7-1.7-4-2.7-6.4-2.6c-2.4,0-4.6,0.9-6.2,2.6c-1.7,1.7-2.7,4-2.7,6.4c0,2.4,0.9,4.6,2.6,6.2l34.9,34.9l-35,34.9
			c-1.7,1.7-2.7,4-2.6,6.4c0,2.4,0.9,4.6,2.6,6.2c1.7,1.7,4,2.6,6.4,2.7c2.4,0,4.6-0.9,6.2-2.6L262.3,296.9z"/>
	</g>
	<g>
		<path class="st1" d="M1038,398.3c-2.9,0-5.6-1.1-7.7-3.2l-19.3-19.3l-19.3,19.3c-2.1,2.1-4.8,3.2-7.7,3.2s-5.6-1.1-7.7-3.2
			c-4.3-4.3-4.3-11,0-15.3l19.3-19.3l-19.3-19.3c-4.3-4.3-4.3-11,0-15.3c2.1-2.1,4.8-3.2,7.7-3.2s5.6,1.1,7.7,3.2l19.2,19.2
			l19.3-19.3c4.3-4.3,11-4.3,15.3,0c4.3,4.3,4.3,11,0,15.3l-19.3,19.3l19.3,19.3c4.2,4.2,4.3,11,0.2,15.4
			C1043.6,397.2,1040.8,398.3,1038,398.3z M1011,367.4l23.5,23.5c0.9,0.9,2.2,1.4,3.4,1.4s2.5-0.5,3.4-1.4c1.9-2,1.8-5-0.1-7
			l-23.5-23.5l23.5-23.5c1.9-1.9,1.9-4.9,0-6.9c-1.9-1.9-4.9-1.9-6.9,0l-23.5,23.5l-23.4-23.4c-0.9-0.9-2.2-1.4-3.4-1.4
			s-2.5,0.5-3.4,1.4c-1.9,1.9-1.9,4.9,0,6.9l23.5,23.5L980.6,384c-1.9,1.9-1.9,4.9,0,6.9c0.9,0.9,2.2,1.4,3.4,1.4s2.5-0.5,3.4-1.4
			L1011,367.4z"/>
	</g>
	<g>
		<path class="st1" d="M813.5,619.3c-1.6,0-3.1-0.2-4.6-0.6c-4.5-1.2-8.2-4.1-10.5-8.2c-2.3-4.1-2.9-8.8-1.7-13.3l14.2-51.2
			l-51.2-14.2c-4.5-1.2-8.2-4.1-10.5-8.2c-2.3-4.1-2.9-8.8-1.7-13.3c1.2-4.5,4.1-8.2,8.2-10.5c4.1-2.3,8.8-2.9,13.3-1.7l51.2,14.2
			l14.2-51.2c2.5-9.3,12.2-14.7,21.5-12.2c4.5,1.2,8.2,4.1,10.5,8.2c2.3,4.1,2.9,8.8,1.7,13.3l-14.2,51.2l51.2,14.2
			c9.3,2.6,14.7,12.3,12.2,21.5c-1.2,4.5-4.1,8.2-8.2,10.5c-4.1,2.3-8.8,2.9-13.3,1.7l-51.2-14.2l-14.2,51.2
			c-1.2,4.5-4.1,8.2-8.2,10.5C819.4,618.5,816.4,619.3,813.5,619.3z M764.3,503.5c-2,0-3.9,0.5-5.7,1.5c-2.7,1.5-4.6,4-5.4,6.9
			c-0.8,3-0.4,6.1,1.1,8.7c1.5,2.7,4,4.6,6.9,5.4l57,15.8l-15.8,57c-0.8,2.9-0.4,6,1.1,8.7c1.5,2.7,4,4.6,6.9,5.4
			c3,0.8,6.1,0.4,8.7-1.1c2.7-1.5,4.6-4,5.4-6.9l15.8-57l57,15.8c2.9,0.8,6,0.4,8.7-1.1c2.7-1.5,4.6-4,5.4-6.9
			c1.7-6-1.9-12.4-8-14.1l-57-15.8l15.8-57c0.8-2.9,0.4-6-1.1-8.7c-1.5-2.7-4-4.6-6.9-5.4c-6.1-1.7-12.5,1.9-14.1,8l-15.8,57
			l-57-15.8C766.3,503.6,765.3,503.5,764.3,503.5z"/>
	</g>
	<g>
		<path class="st1" d="M1640.4,222.9c-8.8,0-16.4-6.6-17.4-15.5l-6.2-52.7l-52.7,6.2c-9.6,1.1-18.3-5.8-19.4-15.3
			c-1.1-9.6,5.8-18.3,15.3-19.4l52.7-6.2l-6.2-52.7c-1.1-9.6,5.8-18.3,15.3-19.4c9.6-1.1,18.3,5.8,19.4,15.3l6.2,52.7l52.7-6.2
			c9.5-1.1,18.2,5.8,19.4,15.3c1.1,9.7-5.8,18.4-15.3,19.5l-52.7,6.2l6.2,52.7c1.1,9.6-5.8,18.3-15.3,19.4
			C1641.8,222.9,1641.1,222.9,1640.4,222.9z M1622.1,148.1l6.8,58.7c0.7,6.3,6.4,10.8,12.8,10.1c6.3-0.7,10.8-6.4,10.1-12.8
			l-6.8-58.7l58.7-6.8c6.3-0.7,10.8-6.4,10.1-12.8c-0.8-6.3-6.4-10.8-12.8-10.1l-58.7,6.8l-6.8-58.7c-0.7-6.3-6.5-10.8-12.8-10.1
			c-6.3,0.7-10.8,6.4-10.1,12.8l6.8,58.7l-58.7,6.8c-6.3,0.7-10.8,6.4-10.1,12.8c0.7,6.3,6.5,10.8,12.8,10.1L1622.1,148.1z"/>
	</g>
	<g>
		<path class="st1" d="M1828.5,319.4c-3.4,0-6.6-1.1-9.3-3.2c-6.5-5.1-7.6-14.6-2.5-21.1l27-34.2l-34.1-27
			c-6.5-5.1-7.6-14.6-2.5-21.1c2.5-3.1,6-5.1,10-5.6c4-0.5,7.9,0.6,11.1,3.1l34.2,27l27-34.1c5.1-6.5,14.6-7.6,21.1-2.5
			c6.5,5.1,7.6,14.6,2.5,21.1l-27,34.2l34.2,27.1c6.4,5.2,7.5,14.7,2.5,21.1c-2.5,3.1-6,5.1-10,5.6c-4,0.5-7.9-0.6-11.1-3.1
			l-34.2-27l-27,34.1c-2.5,3.1-6,5.1-10,5.6C1829.7,319.3,1829.1,319.4,1828.5,319.4z M1819,213c-0.4,0-0.7,0-1.1,0.1
			c-2.4,0.3-4.5,1.5-6,3.4c-3.1,3.9-2.4,9.6,1.5,12.7l38.9,30.8l-30.8,38.9c-3.1,3.9-2.4,9.6,1.5,12.7c1.9,1.5,4.2,2.1,6.7,1.9
			c2.4-0.3,4.5-1.5,6-3.4l30.8-38.9l38.9,30.8c1.9,1.5,4.2,2.1,6.6,1.9c2.4-0.3,4.5-1.5,6-3.4c3.1-3.9,2.4-9.5-1.5-12.7l-38.8-30.8
			l30.8-38.9c3.1-3.9,2.4-9.6-1.5-12.7c-3.9-3.1-9.6-2.4-12.7,1.5l-30.8,38.9l-38.9-30.8C1822.9,213.7,1821,213,1819,213z"/>
	</g>
	<g>
		<path class="st1" d="M1292.2,541.3c-1.7,0-3.5-0.3-5.2-0.9c-3.8-1.4-6.8-4.2-8.5-7.8c-1.7-3.6-1.8-7.7-0.4-11.4l14.9-40.9
			l-40.9-14.9c-3.8-1.4-6.9-4.2-8.5-7.8c-1.7-3.6-1.8-7.7-0.4-11.4c1.4-3.8,4.2-6.8,7.8-8.5c3.6-1.7,7.7-1.8,11.4-0.4l40.9,14.9
			l14.9-40.9c1.4-3.8,4.2-6.8,7.8-8.5c3.6-1.7,7.7-1.8,11.4-0.4c3.8,1.4,6.8,4.2,8.5,7.8c1.7,3.6,1.8,7.7,0.4,11.4l-14.9,40.9
			l40.9,14.9c3.8,1.4,6.8,4.2,8.5,7.8c1.7,3.6,1.8,7.7,0.4,11.4c-1.4,3.8-4.2,6.8-7.8,8.5c-3.6,1.7-7.7,1.8-11.4,0.4l-40.9-14.9
			l-14.9,40.9c-1.4,3.8-4.2,6.8-7.8,8.5C1296.5,540.9,1294.4,541.3,1292.2,541.3z M1257.2,442.3c-1.3,0-2.5,0.3-3.7,0.8
			c-2.2,1-3.9,2.8-4.7,5.1c-0.8,2.2-0.7,4.7,0.3,6.8c1,2.2,2.8,3.9,5.1,4.7l46.5,16.9l-16.9,46.5c-0.8,2.2-0.7,4.7,0.3,6.8
			c1,2.2,2.8,3.9,5.1,4.7c2.2,0.8,4.7,0.7,6.8-0.3c2.2-1,3.9-2.8,4.7-5.1l16.9-46.5l46.5,16.9c2.3,0.8,4.7,0.7,6.8-0.3
			c2.2-1,3.9-2.8,4.7-5.1c0.8-2.2,0.7-4.7-0.3-6.8c-1-2.2-2.8-3.9-5.1-4.7l-46.5-16.9l16.9-46.5c0.8-2.2,0.7-4.7-0.3-6.8
			c-1-2.2-2.8-3.9-5.1-4.7c-2.2-0.8-4.7-0.7-6.8,0.3c-2.2,1-3.9,2.8-4.7,5.1l-16.9,46.5l-46.5-16.9
			C1259.3,442.4,1258.2,442.3,1257.2,442.3z"/>
	</g>
	<g>
		<path class="st1" d="M1716.5,762.8c-6.9,0-13.3-4.2-15.8-10.9l-17.8-47.5l-47.5,17.8c-8.7,3.3-18.5-1.1-21.8-9.9
			c-1.6-4.2-1.4-8.8,0.4-12.9c1.9-4.1,5.2-7.2,9.4-8.8l47.5-17.8l-17.8-47.5c-3.3-8.7,1.1-18.5,9.9-21.8c8.7-3.3,18.5,1.1,21.8,9.9
			l17.8,47.5L1750,643c8.7-3.3,18.5,1.1,21.8,9.9c3.3,8.7-1.1,18.5-9.9,21.8l-47.5,17.8l17.8,47.5c3.3,8.6-1.1,18.4-9.8,21.8
			C1720.5,762.4,1718.5,762.8,1716.5,762.8z M1686.4,696.6l20,53.1c2.1,5.6,8.4,8.5,14,6.3c5.6-2.2,8.5-8.5,6.3-14l0,0l-20-53.1
			l53.1-20c5.6-2.1,8.5-8.4,6.3-14c-1-2.7-3-4.9-5.7-6.1c-2.6-1.2-5.6-1.3-8.3-0.3l-53.1,20l-20-53.1c-2.1-5.6-8.4-8.5-14-6.3
			c-2.7,1-4.9,3-6.1,5.7s-1.3,5.6-0.3,8.3l20,53.1l-53.1,20c-2.7,1-4.9,3-6.1,5.7c-1.2,2.6-1.3,5.6-0.3,8.3c2.1,5.6,8.4,8.5,14,6.3
			L1686.4,696.6z"/>
	</g>
	<g>
		<g>
			<g>
				<path class="st1" d="M75,423.7c0.6,0,1.3,0.1,1.9,0.5l21.5,11.1c0.6,0.3,1.2,0.5,1.9,0.5c0.4,0,0.7,0,1.1-0.1l27.3-7.5
					c0.4-0.1,0.7-0.1,1.1-0.1c0.6,0,1.3,0.2,1.9,0.5l25.2,13c0.6,0.3,1.2,0.5,1.9,0.5c0.4,0,0.7,0,1.1-0.1l27.3-7.5
					c0.4-0.1,0.7-0.1,1.1-0.1c0.6,0,1.3,0.2,1.9,0.5l24.4,12.6c2,1,2.8,3.5,1.8,5.5l0,0c-0.7,1.4-2.2,2.2-3.6,2.2
					c-0.6,0-1.3-0.1-1.9-0.5l-21.5-11.1c-0.6-0.3-1.2-0.5-1.9-0.5c-0.4,0-0.7,0-1.1,0.1l-27.3,7.5c-0.4,0.1-0.7,0.1-1.1,0.1
					c-0.6,0-1.3-0.2-1.9-0.5l-25.2-13c-0.6-0.3-1.2-0.5-1.9-0.5c-0.4,0-0.7,0-1.1,0.1l-27.3,7.5c-0.4,0.1-0.7,0.1-1.1,0.1
					c-0.6,0-1.3-0.2-1.9-0.5l-24.4-12.6c-2-1-2.8-3.5-1.8-5.5l0,0C72.1,424.5,73.5,423.7,75,423.7 M75,417.7c-3.8,0-7.2,2.1-9,5.5
					c-1.2,2.4-1.5,5.1-0.7,7.7s2.6,4.7,5,5.9l24.4,12.6c1.4,0.7,3,1.1,4.6,1.1c0.9,0,1.8-0.1,2.7-0.4l26.6-7.3l24.5,12.7
					c1.4,0.7,3,1.1,4.6,1.1c0.9,0,1.8-0.1,2.7-0.4l26.6-7.3l20.9,10.8c1.4,0.7,3,1.1,4.6,1.1c3.8,0,7.2-2.1,9-5.5
					c1.2-2.4,1.5-5.1,0.7-7.7s-2.6-4.7-5-5.9l-24.4-12.6c-1.4-0.7-3-1.1-4.6-1.1c-0.9,0-1.8,0.1-2.7,0.4l-26.6,7.3L134.4,423
					c-1.4-0.7-3-1.1-4.6-1.1c-0.9,0-1.8,0.1-2.7,0.4l-26.6,7.3l-20.9-10.8C78.2,418.1,76.6,417.7,75,417.7L75,417.7z"/>
			</g>
		</g>
	</g>
	<g>
		<g>
			<g>
				<path class="st1" d="M387.9,502.4c0.6,0,1.3,0.1,1.9,0.5l21.5,11.1c0.6,0.3,1.2,0.5,1.9,0.5c0.4,0,0.7,0,1.1-0.1l27.3-7.5
					c0.4-0.1,0.7-0.1,1.1-0.1c0.6,0,1.3,0.2,1.9,0.5l25.2,13c0.6,0.3,1.2,0.5,1.9,0.5c0.4,0,0.7,0,1.1-0.1l27.3-7.5
					c0.4-0.1,0.7-0.1,1.1-0.1c0.6,0,1.3,0.2,1.9,0.5l24.4,12.6c2,1,2.8,3.5,1.8,5.5c-0.7,1.4-2.2,2.2-3.6,2.2
					c-0.6,0-1.3-0.1-1.9-0.5L502.1,522c-0.6-0.3-1.2-0.5-1.9-0.5c-0.4,0-0.7,0-1.1,0.1l-27.3,7.5c-0.4,0.1-0.7,0.1-1.1,0.1
					c-0.6,0-1.3-0.2-1.9-0.5l-25.2-13c-0.6-0.3-1.2-0.5-1.9-0.5c-0.4,0-0.7,0-1.1,0.1l-27.3,7.5c-0.4,0.1-0.7,0.1-1.1,0.1
					c-0.6,0-1.3-0.2-1.9-0.5l-24.4-12.6c-2-1-2.8-3.5-1.8-5.5l0,0C385,503.2,386.5,502.4,387.9,502.4 M387.9,496.4
					c-3.8,0-7.2,2.1-9,5.5c-1.2,2.4-1.5,5.1-0.7,7.7s2.6,4.7,5,5.9l24.4,12.6c1.4,0.7,3,1.1,4.6,1.1c0.9,0,1.8-0.1,2.7-0.4l26.6-7.3
					l24.5,12.7c1.4,0.7,3,1.1,4.6,1.1c0.9,0,1.8-0.1,2.7-0.4l26.6-7.3l20.9,10.8c1.4,0.7,3,1.1,4.6,1.1c3.8,0,7.2-2.1,9-5.5
					c2.6-4.9,0.6-11.1-4.3-13.6L505.8,508c-1.4-0.7-3-1.1-4.6-1.1c-0.9,0-1.8,0.1-2.7,0.4l-26.6,7.3l-24.5-12.7
					c-1.4-0.7-3-1.1-4.6-1.1c-0.9,0-1.8,0.1-2.7,0.4l-26.6,7.3l-20.9-10.8C391.2,496.8,389.5,496.4,387.9,496.4L387.9,496.4z"/>
			</g>
		</g>
	</g>
	<g>
		<g>
			<g>
				<path class="st1" d="M598.3,129.1c1.7,0,3.3,1.1,3.9,2.9c0.7,2.2-0.5,4.5-2.7,5.1l-23.1,7.4c-1,0.3-1.8,1-2.3,1.9l-14,24.6
					c-0.5,0.9-1.3,1.6-2.3,1.9l-27,8.6c-1,0.3-1.8,1-2.3,1.9l-14,24.6c-0.5,0.9-1.3,1.6-2.3,1.9l-26.1,8.3c-0.4,0.1-0.8,0.2-1.2,0.2
					c-1.7,0-3.3-1.1-3.9-2.9l0,0c-0.7-2.2,0.5-4.5,2.7-5.1l23.1-7.4c1-0.3,1.8-1,2.3-1.9l14-24.6c0.5-0.9,1.3-1.6,2.3-1.9l27-8.6
					c1-0.3,1.8-1,2.3-1.9l14-24.6c0.5-0.9,1.3-1.6,2.3-1.9l26.1-8.3C597.5,129.2,597.9,129.1,598.3,129.1 M598.3,123.1
					c-1,0-2.1,0.2-3.1,0.5l-26.1,8.3c-2.4,0.8-4.5,2.4-5.7,4.6l-13.7,24l-26.3,8.4c-2.4,0.8-4.5,2.4-5.7,4.6l-13.7,24l-22.4,7.1
					c-5.3,1.7-8.2,7.4-6.6,12.7c1.3,4.2,5.2,7,9.6,7c1,0,2.1-0.2,3.1-0.5l26.1-8.3c2.4-0.8,4.5-2.4,5.7-4.6l13.7-24l26.3-8.4
					c2.4-0.8,4.5-2.4,5.7-4.6l13.7-24l22.4-7.1c2.6-0.8,4.7-2.6,5.9-5s1.5-5.1,0.7-7.7C606.6,126,602.7,123.1,598.3,123.1
					L598.3,123.1z"/>
			</g>
		</g>
	</g>
	<g>
		<g>
			<g>
				<path class="st1" d="M284.6-4.2c0.9,0,1.9,0.2,2.8,0.7L319.3,13c0.9,0.4,1.8,0.7,2.8,0.7c0.5,0,1.1-0.1,1.6-0.2l40.5-11.1
					c0.5-0.1,1.1-0.2,1.6-0.2c1,0,1.9,0.2,2.8,0.7L406,22c0.9,0.4,1.8,0.7,2.8,0.7c0.5,0,1.1-0.1,1.6-0.2l40.5-11.1
					c0.5-0.1,1.1-0.2,1.6-0.2c1,0,1.9,0.2,2.8,0.7l36.1,18.7c3,1.5,4.1,5.2,2.6,8.2c-1.1,2.1-3.2,3.3-5.4,3.3
					c-0.9,0-1.9-0.2-2.8-0.7l-31.9-16.5c-0.9-0.4-1.8-0.7-2.8-0.7c-0.5,0-1.1,0.1-1.6,0.2L409,35.5c-0.5,0.1-1.1,0.2-1.6,0.2
					c-1,0-1.9-0.2-2.8-0.7l-37.3-19.3c-0.9-0.4-1.8-0.7-2.8-0.7c-0.5,0-1.1,0.1-1.6,0.2l-40.5,11.1c-0.5,0.1-1.1,0.2-1.6,0.2
					c-1,0-1.9-0.2-2.8-0.7L281.8,7.2c-3-1.5-4.1-5.2-2.6-8.2l0,0C280.3-3,282.4-4.2,284.6-4.2 M284.6-10.2c-4.5,0-8.7,2.5-10.7,6.5
					c-3.1,5.9-0.7,13.2,5.2,16.3l36.1,18.7c1.7,0.9,3.6,1.3,5.5,1.3c1.1,0,2.2-0.1,3.2-0.4l40.5-11.1l2.8-5.3l-2.8,5.3l37.3,19.3
					c1.7,0.9,3.6,1.3,5.5,1.3c1.1,0,2.2-0.1,3.2-0.4l40.5-11.1h0.1l31.9,16.5c1.7,0.9,3.6,1.3,5.5,1.3c4.5,0,8.7-2.5,10.7-6.5
					c3.1-5.9,0.7-13.2-5.2-16.3L458,6.5c-1.7-0.9-3.6-1.3-5.5-1.3c-1.1,0-2.2,0.1-3.2,0.4l-40.5,11.1h-0.1L371.4-2.6
					c-1.7-0.9-3.6-1.3-5.5-1.3c-1.1,0-2.2,0.1-3.2,0.4L322.1,7.6H322L290.2-8.9C288.5-9.8,286.5-10.2,284.6-10.2L284.6-10.2z"/>
			</g>
		</g>
	</g>
	<g>
		<g>
			<g>
				<path class="st1" d="M1015.1,158.2c0.6,0,1.3,0.1,1.9,0.5l21.5,11.1c0.6,0.3,1.2,0.5,1.9,0.5c0.4,0,0.7,0,1.1-0.1l27.3-7.5
					c0.4-0.1,0.7-0.1,1.1-0.1c0.6,0,1.3,0.2,1.9,0.5l25.2,13c0.6,0.3,1.2,0.5,1.9,0.5c0.4,0,0.7,0,1.1-0.1l27.3-7.5
					c0.4-0.1,0.7-0.1,1.1-0.1c0.6,0,1.3,0.2,1.9,0.5l24.4,12.6c2,1,2.8,3.5,1.8,5.5c-0.7,1.4-2.2,2.2-3.6,2.2
					c-0.6,0-1.3-0.1-1.9-0.5l-21.5-11.1c-0.6-0.3-1.2-0.5-1.9-0.5c-0.4,0-0.7,0-1.1,0.1L1099,185c-0.4,0.1-0.7,0.1-1.1,0.1
					c-0.6,0-1.3-0.2-1.9-0.5l-25.2-13c-0.6-0.3-1.2-0.5-1.9-0.5c-0.4,0-0.7,0-1.1,0.1l-27.3,7.5c-0.4,0.1-0.7,0.1-1.1,0.1
					c-0.6,0-1.3-0.2-1.9-0.5l-24.4-12.6c-2-1-2.8-3.5-1.8-5.5l0,0C1012.2,159,1013.6,158.2,1015.1,158.2 M1015.1,152.2
					c-3.8,0-7.2,2.1-9,5.5c-1.2,2.4-1.5,5.1-0.7,7.7s2.6,4.7,5,5.9l24.4,12.6c1.4,0.7,3,1.1,4.6,1.1c0.9,0,1.8-0.1,2.7-0.4l26.6-7.3
					l24.5,12.7c1.4,0.7,3,1.1,4.6,1.1c0.9,0,1.8-0.1,2.7-0.4l26.6-7.3l20.9,10.8c1.4,0.7,3,1.1,4.6,1.1c3.8,0,7.2-2.1,9-5.5
					c2.6-4.9,0.6-11.1-4.3-13.6l-24.4-12.6c-1.4-0.7-3-1.1-4.6-1.1c-0.9,0-1.8,0.1-2.7,0.4l-26.6,7.3l-24.5-12.7
					c-1.4-0.7-3-1.1-4.6-1.1c-0.9,0-1.8,0.1-2.7,0.4l-26.6,7.3l-20.9-10.8C1018.3,152.6,1016.7,152.2,1015.1,152.2L1015.1,152.2z"/>
			</g>
		</g>
	</g>
	<g>
		<g>
			<g>
				<path class="st1" d="M1047.7,553.4c0.6,0,1.3,0.1,1.9,0.5l21.5,11.1c0.6,0.3,1.2,0.5,1.9,0.5c0.4,0,0.7,0,1.1-0.1l27.3-7.5
					c0.4-0.1,0.7-0.1,1.1-0.1c0.6,0,1.3,0.2,1.9,0.5l25.2,13c0.6,0.3,1.2,0.5,1.9,0.5c0.4,0,0.7,0,1.1-0.1l27.3-7.5
					c0.4-0.1,0.7-0.1,1.1-0.1c0.6,0,1.3,0.2,1.9,0.5l24.4,12.6c2,1,2.8,3.5,1.8,5.5c-0.7,1.4-2.2,2.2-3.6,2.2
					c-0.6,0-1.3-0.1-1.9-0.5l-21.5-11.1c-0.6-0.3-1.2-0.5-1.9-0.5c-0.4,0-0.7,0-1.1,0.1l-27.3,7.5c-0.4,0.1-0.7,0.1-1.1,0.1
					c-0.7,0-1.3-0.2-1.9-0.5l-25.2-13c-0.6-0.3-1.2-0.5-1.9-0.5c-0.4,0-0.7,0-1.1,0.1l-27.3,7.5c-0.4,0.1-0.7,0.1-1.1,0.1
					c-0.6,0-1.3-0.2-1.9-0.5l-24.4-12.6c-2-1-2.8-3.5-1.8-5.5l0,0C1044.8,554.2,1046.2,553.4,1047.7,553.4 M1047.7,547.4
					c-3.8,0-7.2,2.1-9,5.5c-1.2,2.4-1.5,5.1-0.7,7.7c0.8,2.6,2.6,4.7,5,5.9l24.4,12.6c1.4,0.7,3,1.1,4.6,1.1c0.9,0,1.8-0.1,2.7-0.4
					l26.6-7.3l24.5,12.7c1.4,0.7,3,1.1,4.6,1.1c0.9,0,1.8-0.1,2.7-0.4l26.6-7.3l20.9,10.8c1.4,0.7,3,1.1,4.6,1.1
					c3.8,0,7.2-2.1,9-5.5c1.2-2.4,1.5-5.1,0.7-7.7c-0.8-2.6-2.6-4.7-5-5.9l-24.4-12.6c-1.4-0.7-3-1.1-4.6-1.1
					c-0.9,0-1.8,0.1-2.7,0.4l-26.6,7.3l-24.5-12.7c-1.4-0.7-3-1.1-4.6-1.1c-0.9,0-1.8,0.1-2.7,0.4l-26.6,7.3l-20.9-10.8
					C1050.9,547.7,1049.3,547.4,1047.7,547.4L1047.7,547.4z"/>
			</g>
		</g>
	</g>
	<g>
		<g>
			<g>
				<path class="st1" d="M292.2,902.3c1.7,0,3.3,1.1,3.9,2.9c0.7,2.2-0.5,4.5-2.7,5.1l-23.1,7.4c-1,0.3-1.8,1-2.3,1.9l-14,24.6
					c-0.5,0.9-1.3,1.6-2.3,1.9l-27,8.6c-1,0.3-1.8,1-2.3,1.9l-14,24.6c-0.5,0.9-1.3,1.6-2.3,1.9l-26.1,8.3c-0.4,0.1-0.8,0.2-1.2,0.2
					c-1.7,0-3.3-1.1-3.9-2.9l0,0c-0.7-2.2,0.5-4.5,2.7-5.1l23.1-7.4c1-0.3,1.8-1,2.3-1.9l14-24.6c0.5-0.9,1.3-1.6,2.3-1.9l27-8.6
					c1-0.3,1.8-1,2.3-1.9l14-24.6c0.5-0.9,1.3-1.6,2.3-1.9l26.1-8.3C291.4,902.4,291.8,902.3,292.2,902.3 M292.2,896.3L292.2,896.3
					c-1,0-2.1,0.2-3.1,0.5l-26.1,8.3c-2.4,0.8-4.5,2.4-5.7,4.6l-13.7,24l-26.3,8.4c-2.4,0.8-4.5,2.4-5.7,4.6l-13.7,24l-22.4,7.1
					c-2.6,0.8-4.7,2.6-5.9,5s-1.5,5.1-0.7,7.7c1.3,4.2,5.2,7,9.6,7c1,0,2.1-0.2,3.1-0.5l26.1-8.3c2.4-0.8,4.5-2.4,5.7-4.6l13.7-24
					l26.3-8.4c2.4-0.8,4.5-2.4,5.7-4.6l13.7-24l22.4-7.1c2.6-0.8,4.7-2.6,5.9-5c1.2-2.4,1.5-5.1,0.7-7.7
					C300.5,899.2,296.6,896.3,292.2,896.3L292.2,896.3z"/>
			</g>
		</g>
	</g>
	<g>
		<g>
			<g>
				<path class="st1" d="M1110.6,836.3c1.1,0,2.1,0.4,2.9,1.2l16.9,17.4c0.7,0.7,1.7,1.2,2.7,1.2l28.3,1.5c1,0.1,2,0.5,2.7,1.2
					l19.8,20.3c0.7,0.7,1.7,1.2,2.7,1.2l28.3,1.5c1,0.1,2,0.5,2.7,1.2l19.2,19.6c1.6,1.6,1.5,4.2-0.1,5.8c-0.8,0.8-1.8,1.2-2.9,1.2
					s-2.1-0.4-2.9-1.2L1214,891c-0.7-0.7-1.7-1.2-2.7-1.2l-28.3-1.5c-1-0.1-2-0.5-2.7-1.2l-19.8-20.3c-0.7-0.7-1.7-1.2-2.7-1.2
					l-28.3-1.5c-1-0.1-2-0.5-2.7-1.2l-19.2-19.6c-1.6-1.6-1.5-4.2,0.1-5.8l0,0C1108.5,836.7,1109.6,836.3,1110.6,836.3
					 M1110.6,830.3L1110.6,830.3c-2.6,0-5.2,1-7.1,2.9s-3,4.4-3,7.1c0,2.7,1,5.2,2.9,7.2l19.2,19.6c1.8,1.8,4.2,2.9,6.7,3l27.6,1.5
					l19.3,19.8c1.8,1.8,4.2,2.9,6.7,3l27.6,1.5l16.4,16.8c1.9,2,4.5,3,7.2,3c2.6,0,5.2-1,7.1-2.9c4-3.9,4.1-10.3,0.2-14.3
					l-19.2-19.6c-1.8-1.8-4.2-2.9-6.7-3l-27.6-1.5l-19.3-19.8c-1.8-1.8-4.2-2.9-6.7-3l-27.6-1.5l-16.4-16.8
					C1115.9,831.4,1113.4,830.3,1110.6,830.3L1110.6,830.3z"/>
			</g>
		</g>
	</g>
	<g>
		<g>
			<g>
				<path class="st1" d="M1860.2,763.3c0.6,0,1.3,0.1,1.9,0.5l21.5,11.1c0.6,0.3,1.2,0.5,1.9,0.5c0.4,0,0.7,0,1.1-0.1l27.3-7.5
					c0.4-0.1,0.7-0.1,1.1-0.1c0.6,0,1.3,0.2,1.9,0.5l25.2,13c0.6,0.3,1.2,0.5,1.9,0.5c0.4,0,0.7,0,1.1-0.1l27.3-7.5
					c0.4-0.1,0.7-0.1,1.1-0.1c0.6,0,1.3,0.2,1.9,0.5l24.4,12.6c2,1,2.8,3.5,1.8,5.5c-0.7,1.4-2.2,2.2-3.6,2.2
					c-0.6,0-1.3-0.1-1.9-0.5l-21.5-11.1c-0.6-0.3-1.2-0.5-1.9-0.5c-0.4,0-0.7,0-1.1,0.1l-27.3,7.5c-0.4,0.1-0.7,0.1-1.1,0.1
					c-0.6,0-1.3-0.2-1.9-0.5l-25.2-13c-0.6-0.3-1.2-0.5-1.9-0.5c-0.4,0-0.7,0-1.1,0.1l-27.3,7.5c-0.4,0.1-0.7,0.1-1.1,0.1
					c-0.6,0-1.3-0.2-1.9-0.5l-24.4-12.6c-2-1-2.8-3.5-1.8-5.5l0,0C1857.3,764.1,1858.7,763.3,1860.2,763.3 M1860.2,757.3
					c-3.8,0-7.2,2.1-9,5.5c-2.6,4.9-0.6,11.1,4.3,13.6l24.4,12.6c1.4,0.7,3,1.1,4.6,1.1c0.9,0,1.8-0.1,2.7-0.4l26.6-7.3l24.5,12.7
					c1.4,0.7,3,1.1,4.6,1.1c0.9,0,1.8-0.1,2.7-0.4l26.6-7.3l20.9,10.8c1.4,0.7,3,1.1,4.6,1.1c3.8,0,7.2-2.1,9-5.5
					c2.6-4.9,0.6-11.1-4.3-13.6l-24.4-12.6c-1.4-0.7-3-1.1-4.6-1.1c-0.9,0-1.8,0.1-2.7,0.4l-26.6,7.3l-24.5-12.7
					c-1.4-0.7-3-1.1-4.6-1.1c-0.9,0-1.8,0.1-2.7,0.4l-26.6,7.3l-20.9-10.8C1863.4,757.7,1861.8,757.3,1860.2,757.3L1860.2,757.3z"/>
			</g>
		</g>
	</g>
	<g>
		<g>
			<g>
				<path class="st1" d="M-31,778.9c0.6,0,1.3,0.1,1.9,0.5l21.5,11.1c0.6,0.3,1.2,0.5,1.9,0.5c0.4,0,0.7,0,1.1-0.1l27.3-7.5
					c0.4-0.1,0.7-0.1,1.1-0.1c0.6,0,1.3,0.2,1.9,0.5l25.2,13c0.6,0.3,1.2,0.5,1.9,0.5c0.4,0,0.7,0,1.1-0.1l27.3-7.5
					c0.4-0.1,0.7-0.1,1.1-0.1c0.6,0,1.3,0.2,1.9,0.5l24.4,12.6c2,1,2.8,3.5,1.8,5.5c-0.7,1.4-2.2,2.2-3.6,2.2
					c-0.6,0-1.3-0.1-1.9-0.5l-21.5-11.1c-0.6-0.3-1.2-0.5-1.9-0.5c-0.4,0-0.7,0-1.1,0.1l-27.3,7.5c-0.4,0.1-0.7,0.1-1.1,0.1
					c-0.6,0-1.3-0.2-1.9-0.5l-25.2-13c-0.6-0.3-1.2-0.5-1.9-0.5c-0.4,0-0.7,0-1.1,0.1l-27.3,7.5c-0.4,0.1-0.7,0.1-1.1,0.1
					c-0.6,0-1.3-0.2-1.9-0.5l-24.4-12.6c-2-1-2.8-3.5-1.8-5.5l0,0C-33.9,779.7-32.5,778.9-31,778.9 M-31,772.9c-3.8,0-7.2,2.1-9,5.5
					c-2.6,4.9-0.6,11.1,4.3,13.6l24.4,12.6c1.4,0.7,3,1.1,4.6,1.1c0.9,0,1.8-0.1,2.7-0.4l26.6-7.3l24.5,12.7c1.4,0.7,3,1.1,4.6,1.1
					c0.9,0,1.8-0.1,2.7-0.4l26.6-7.3l21,10.9c1.4,0.7,3,1.1,4.6,1.1c3.8,0,7.2-2.1,9-5.5c2.6-4.9,0.6-11.1-4.3-13.6l-24.4-12.6
					c-1.4-0.7-3-1.1-4.6-1.1c-0.9,0-1.8,0.1-2.7,0.4L53,791l-24.5-12.7c-1.4-0.7-3-1.1-4.6-1.1c-0.9,0-1.8,0.1-2.7,0.4l-26.6,7.3
					l-20.9-10.8C-27.8,773.3-29.4,772.9-31,772.9L-31,772.9z"/>
			</g>
		</g>
	</g>
	<g>
		<g>
			<g>
				<path class="st1" d="M410.6,1046.2c0.9,0,1.8,0.2,2.7,0.7l31.1,16.1c0.8,0.4,1.8,0.7,2.7,0.7c0.5,0,1.1-0.1,1.6-0.2l39.4-10.8
					c0.5-0.1,1-0.2,1.6-0.2c0.9,0,1.9,0.2,2.7,0.7l36.3,18.8c0.8,0.4,1.8,0.7,2.7,0.7c0.5,0,1.1-0.1,1.6-0.2l39.4-10.8
					c0.5-0.1,1-0.2,1.6-0.2c0.9,0,1.9,0.2,2.7,0.7l35.2,18.2c2.9,1.5,4,5.1,2.5,8l0,0c-1.1,2-3.1,3.2-5.3,3.2
					c-0.9,0-1.8-0.2-2.7-0.7l-31.1-16.1c-0.8-0.4-1.8-0.7-2.7-0.7c-0.5,0-1.1,0.1-1.6,0.2l-39.4,10.8c-0.5,0.1-1,0.2-1.6,0.2
					c-0.9,0-1.9-0.2-2.7-0.7l-36.3-18.8c-0.8-0.4-1.8-0.7-2.7-0.7c-0.5,0-1.1,0.1-1.6,0.2l-39.4,10.8c-0.5,0.1-1,0.2-1.6,0.2
					c-0.9,0-1.9-0.2-2.7-0.7l-35.2-18.2c-2.9-1.5-4-5.1-2.5-8l0,0C406.4,1047.4,408.5,1046.2,410.6,1046.2 M410.6,1040.2
					c-4.5,0-8.5,2.5-10.6,6.4c-1.5,2.8-1.7,6.1-0.8,9.1c1,3,3.1,5.5,5.9,7l35.2,18.2c1.7,0.9,3.6,1.3,5.5,1.3c1.1,0,2.1-0.1,3.2-0.4
					l39.4-10.8l36.3,18.8c1.7,0.9,3.6,1.3,5.5,1.3c1.1,0,2.1-0.1,3.2-0.4l39.4-10.8l31,16c1.7,0.9,3.6,1.3,5.5,1.3
					c4.5,0,8.5-2.5,10.6-6.4c1.5-2.8,1.7-6.1,0.8-9.1c-1-3-3.1-5.5-5.9-7l-35.2-18.2c-1.7-0.9-3.6-1.3-5.5-1.3
					c-1.1,0-2.1,0.1-3.2,0.4l-39.4,10.8l-36.3-18.8c-1.7-0.9-3.6-1.3-5.5-1.3c-1.1,0-2.1,0.1-3.2,0.4l-39.4,10.8l-31-16
					C414.4,1040.7,412.5,1040.2,410.6,1040.2L410.6,1040.2z"/>
			</g>
		</g>
	</g>
</g>
</svg>
