<?xml version="1.0" encoding="utf-8"?>
<!-- Generator: Adobe Illustrator 23.0.3, SVG Export Plug-In . SVG Version: 6.00 Build 0)  -->
<svg version="1.1" id="Layer_1" xmlns="http://www.w3.org/2000/svg" xmlns:xlink="http://www.w3.org/1999/xlink" x="0px" y="0px"
	 viewBox="0 0 1920 1080" style="enable-background:new 0 0 1920 1080;" xml:space="preserve">
<style type="text/css">
	.st0{opacity:8.000000e-02;}
	.st1{fill:#837EF0;}
	.st2{fill:none;stroke:#837EF0;stroke-width:6;stroke-miterlimit:10;}
</style>
<g class="st0">
	<circle class="st1" cx="683.1" cy="370.4" r="55.3"/>
	<circle class="st1" cx="1748.2" cy="962.5" r="55.3"/>
	<circle class="st1" cx="583.4" cy="710.2" r="43.8"/>
	<circle class="st1" cx="318.3" cy="804.5" r="43.8"/>
	<circle class="st1" cx="801.5" cy="10" r="118.4"/>
	<circle class="st1" cx="1002.2" cy="1151.5" r="91.7"/>
	<circle class="st1" cx="888" cy="820.8" r="86.5"/>
	<circle class="st1" cx="1437.8" cy="779" r="86.5"/>
	<circle class="st1" cx="1363.1" cy="145.3" r="67.9"/>
	<circle class="st1" cx="1719.4" cy="481.4" r="70.8"/>
	<circle class="st1" cx="1487.3" cy="343.7" r="49.5"/>
	<path class="st1" d="M1503,1143.5l-44.5-44.5l44.5-44.5c6.3-6.3,6.3-16.6,0-23l0,0c-6.3-6.3-16.6-6.3-23,0l-44.5,44.5l-44.5-44.5
		c-6.3-6.3-16.6-6.3-23,0l0,0c-6.3,6.3-6.3,16.6,0,23l44.5,44.5l-44.5,44.5c-6.3,6.3-6.3,16.6,0,23l0,0c6.3,6.3,16.6,6.3,23,0
		l44.5-44.5l44.5,44.5c6.3,6.3,16.6,6.3,23,0l0,0C1509.4,1160.1,1509.4,1149.8,1503,1143.5z"/>
	<path class="st1" d="M136.4,669.2l-47.8-47.8l47.8-47.8c6.8-6.8,6.8-17.9,0-24.7l0,0c-6.8-6.8-17.9-6.8-24.7,0l-47.8,47.8
		l-47.8-47.8c-6.8-6.8-17.9-6.8-24.7,0l0,0c-6.8,6.8-6.8,17.9,0,24.7l47.8,47.8l-47.8,47.8c-6.8,6.8-6.8,17.9,0,24.7l0,0
		c6.8,6.8,17.9,6.8,24.7,0l47.8-47.8l47.8,47.8c6.8,6.8,17.9,6.8,24.7,0l0,0C143.2,687.1,143.2,676,136.4,669.2z"/>
	<path class="st1" d="M574.5,921.5L544,891l30.5-30.5c4.4-4.4,4.4-11.4,0-15.8l0,0c-4.4-4.4-11.4-4.4-15.8,0l-30.5,30.5l-30.5-30.5
		c-4.4-4.4-11.4-4.4-15.8,0l0,0c-4.4,4.4-4.4,11.4,0,15.8l30.5,30.5l-30.5,30.5c-4.4,4.4-4.4,11.4,0,15.8l0,0
		c4.4,4.4,11.4,4.4,15.8,0l30.5-30.5l30.5,30.5c4.4,4.4,11.4,4.4,15.8,0l0,0C578.8,933,578.8,925.9,574.5,921.5z"/>
	<path class="st1" d="M803.3,1010.5l-20.4-20.4l20.4-20.4c2.9-2.9,2.9-7.6,0-10.5l0,0c-2.9-2.9-7.6-2.9-10.5,0l-20.4,20.4
		l-20.4-20.4c-2.9-2.9-7.6-2.9-10.5,0l0,0c-2.9,2.9-2.9,7.6,0,10.5l20.4,20.4l-20.4,20.4c-2.9,2.9-2.9,7.6,0,10.5l0,0
		c2.9,2.9,7.6,2.9,10.5,0l20.4-20.4l20.4,20.4c2.9,2.9,7.6,2.9,10.5,0l0,0C806.2,1018.2,806.2,1013.5,803.3,1010.5z"/>
	<path class="st1" d="M322.1,327l-32.8-32.8l32.8-32.8c4.7-4.7,4.7-12.3,0-16.9l0,0c-4.7-4.7-12.3-4.7-16.9,0l-32.8,32.8l-32.8-32.8
		c-4.7-4.7-12.3-4.7-16.9,0l0,0c-4.7,4.7-4.7,12.3,0,16.9l32.8,32.8L222.6,327c-4.7,4.7-4.7,12.3,0,16.9l0,0
		c4.7,4.7,12.3,4.7,16.9,0l32.8-32.8l32.8,32.8c4.7,4.7,12.3,4.7,16.9,0l0,0C326.8,339.2,326.8,331.7,322.1,327z"/>
	<path class="st1" d="M1053.4,391.8l-21.4-21.4l21.4-21.4c3.1-3.1,3.1-8,0-11.1v0c-3.1-3.1-8-3.1-11.1,0l-21.4,21.4L999.6,338
		c-3.1-3.1-8-3.1-11.1,0l0,0c-3.1,3.1-3.1,8,0,11.1l21.4,21.4l-21.4,21.4c-3.1,3.1-3.1,8,0,11.1v0c3.1,3.1,8,3.1,11.1,0l21.4-21.4
		l21.4,21.4c3.1,3.1,8,3.1,11.1,0l0,0C1056.5,399.8,1056.5,394.9,1053.4,391.8z"/>
	<path class="st1" d="M914.2,548.7l-54.1-15l15-54.1c2.1-7.7-2.4-15.7-10.1-17.8l0,0c-7.7-2.1-15.7,2.4-17.8,10.1l-15,54.1l-54.1-15
		c-7.7-2.1-15.7,2.4-17.8,10.1l0,0c-2.1,7.7,2.4,15.7,10.1,17.8l54.1,15l-15,54.1c-2.1,7.7,2.4,15.7,10.1,17.8l0,0
		c7.7,2.1,15.7-2.4,17.8-10.1l15-54.1l54.1,15c7.7,2.1,15.7-2.4,17.8-10.1l0,0C926.4,558.9,921.9,550.9,914.2,548.7z"/>
	<path class="st1" d="M1710.6,122.7l-55.7,6.5l-6.5-55.7c-0.9-7.9-8.1-13.6-16.1-12.7l0,0c-7.9,0.9-13.6,8.1-12.7,16.1l6.5,55.7
		l-55.7,6.5c-7.9,0.9-13.6,8.1-12.7,16.1l0,0c0.9,7.9,8.1,13.6,16.1,12.7l55.7-6.5l6.5,55.7c0.9,7.9,8.1,13.6,16.1,12.7l0,0
		c7.9-0.9,13.6-8.1,12.7-16.1l-6.5-55.7l55.7-6.5c7.9-0.9,13.6-8.1,12.7-16.1l0,0C1725.7,127.5,1718.6,121.8,1710.6,122.7z"/>
	<path class="st1" d="M1928.3,295.3l-36.5-28.9l28.9-36.5c4.1-5.2,3.2-12.8-2-16.9l0,0c-5.2-4.1-12.8-3.2-16.9,2l-28.9,36.5
		l-36.5-28.9c-5.2-4.1-12.8-3.2-16.9,2l0,0c-4.1,5.2-3.2,12.8,2,16.9l36.5,28.9l-28.9,36.5c-4.1,5.2-3.2,12.8,2,16.9l0,0
		c5.2,4.1,12.8,3.2,16.9-2l28.9-36.5l36.5,28.9c5.2,4.1,12.8,3.2,16.9-2l0,0C1934.4,307,1933.5,299.5,1928.3,295.3z"/>
	<path class="st1" d="M1313.5,540.4l15.9-43.7l43.7,15.9c6.2,2.3,13.1-0.9,15.4-7.2l0,0c2.3-6.2-0.9-13.1-7.2-15.4l-43.7-15.9
		l15.9-43.7c2.3-6.2-0.9-13.1-7.2-15.4l0,0c-6.2-2.3-13.1,0.9-15.4,7.2l-15.9,43.7l-43.7-15.9c-6.2-2.3-13.1,0.9-15.4,7.2l0,0
		c-2.3,6.2,0.9,13.1,7.2,15.4l43.7,15.9l-15.9,43.7c-2.3,6.2,0.9,13.1,7.2,15.4l0,0C1304.3,549.9,1311.2,546.7,1313.5,540.4z"/>
	<path class="st1" d="M1739.5,751l-18.9-50.3l50.3-18.9c7.2-2.7,10.8-10.7,8.1-17.9l0,0c-2.7-7.2-10.7-10.8-17.9-8.1l-50.3,18.9
		l-18.9-50.3c-2.7-7.2-10.7-10.8-17.9-8.1l0,0c-7.2,2.7-10.8,10.7-8.1,17.9l18.9,50.3l-50.3,18.9c-7.2,2.7-10.8,10.7-8.1,17.9v0
		c2.7,7.2,10.7,10.8,17.9,8.1l50.3-18.9l18.9,50.3c2.7,7.2,10.7,10.8,17.9,8.1l0,0C1738.6,766.1,1742.2,758.1,1739.5,751z"/>
	<g>
		<g>
			<path class="st1" d="M107.5,454l-24.4-12.6c-2-1-2.8-3.5-1.8-5.5l0,0c1-2,3.5-2.8,5.5-1.8l21.5,11.1c0.9,0.5,2,0.6,3,0.3
				l27.3-7.5c1-0.3,2.1-0.2,3,0.3l25.2,13c0.9,0.5,2,0.6,3,0.3l27.3-7.5c1-0.3,2.1-0.2,3,0.3l24.4,12.6c2,1,2.8,3.5,1.8,5.5h0
				c-1,2-3.5,2.8-5.5,1.8l-21.5-11.1c-0.9-0.5-2-0.6-3-0.3l-27.3,7.5c-1,0.3-2.1,0.2-3-0.3l-25.2-13c-0.9-0.5-2-0.6-3-0.3l-27.3,7.5
				C109.5,454.6,108.4,454.5,107.5,454z"/>
		</g>
	</g>
	<g>
		<g>
			<path class="st1" d="M420.4,532.8l-24.4-12.6c-2-1-2.8-3.5-1.8-5.5l0,0c1-2,3.5-2.8,5.5-1.8l21.5,11.1c0.9,0.5,2,0.6,3,0.3
				l27.3-7.5c1-0.3,2.1-0.2,3,0.3l25.2,13c0.9,0.5,2,0.6,3,0.3l27.3-7.5c1-0.3,2.1-0.2,3,0.3l24.4,12.6c2,1,2.8,3.5,1.8,5.5l0,0
				c-1,2-3.5,2.8-5.5,1.8L512.1,532c-0.9-0.5-2-0.6-3-0.3l-27.3,7.5c-1,0.3-2.1,0.2-3-0.3l-25.2-13c-0.9-0.5-2-0.6-3-0.3l-27.3,7.5
				C422.4,533.4,421.3,533.2,420.4,532.8z"/>
		</g>
	</g>
	<g>
		<g>
			<path class="st1" d="M522.2,219.9l-26.1,8.3c-2.2,0.7-4.5-0.5-5.1-2.7l0,0c-0.7-2.2,0.5-4.5,2.7-5.1l23.1-7.4
				c1-0.3,1.8-1,2.3-1.9l14-24.6c0.5-0.9,1.3-1.6,2.3-1.9l27-8.6c1-0.3,1.8-1,2.3-1.9l14-24.6c0.5-0.9,1.3-1.6,2.3-1.9l26.1-8.3
				c2.2-0.7,4.5,0.5,5.1,2.7v0c0.7,2.2-0.5,4.5-2.7,5.1l-23.1,7.4c-1,0.3-1.8,1-2.3,1.9l-14,24.6c-0.5,0.9-1.3,1.6-2.3,1.9l-27,8.6
				c-1,0.3-1.8,1-2.3,1.9l-14,24.6C524,218.9,523.1,219.6,522.2,219.9z"/>
		</g>
	</g>
	<g>
		<g>
			<path class="st1" d="M328,35.9l-36.1-18.7c-3-1.5-4.1-5.2-2.6-8.2l0,0c1.5-3,5.2-4.1,8.2-2.6l31.9,16.5c1.4,0.7,2.9,0.9,4.4,0.5
				l40.5-11.1c1.5-0.4,3-0.2,4.4,0.5L416,32c1.4,0.7,2.9,0.9,4.4,0.5l40.5-11.1c1.5-0.4,3-0.2,4.4,0.5l36.1,18.7
				c3,1.5,4.1,5.2,2.6,8.2v0c-1.5,3-5.2,4.2-8.2,2.6l-31.9-16.5c-1.4-0.7-2.9-0.9-4.4-0.5L419,45.5c-1.5,0.4-3,0.2-4.4-0.5
				l-37.3-19.3c-1.4-0.7-2.9-0.9-4.4-0.5l-40.5,11.1C330.9,36.8,329.3,36.6,328,35.9z"/>
		</g>
	</g>
	<g>
		<g>
			<path class="st1" d="M1047.6,188.5l-24.4-12.6c-2-1-2.8-3.5-1.8-5.5l0,0c1-2,3.5-2.8,5.5-1.8l21.5,11.1c0.9,0.5,2,0.6,3,0.3
				l27.3-7.5c1-0.3,2.1-0.2,3,0.3l25.2,13c0.9,0.5,2,0.6,3,0.3l27.3-7.5c1-0.3,2.1-0.2,3,0.3l24.4,12.6c2,1,2.8,3.5,1.8,5.5l0,0
				c-1,2-3.5,2.8-5.5,1.8l-21.5-11.1c-0.9-0.5-2-0.6-3-0.3L1109,195c-1,0.3-2.1,0.2-3-0.3l-25.2-13c-0.9-0.5-2-0.6-3-0.3l-27.3,7.5
				C1049.5,189.1,1048.5,189,1047.6,188.5z"/>
		</g>
	</g>
	<g>
		<g>
			<path class="st1" d="M1080.2,583.7l-24.4-12.6c-2-1-2.8-3.5-1.8-5.5l0,0c1-2,3.5-2.8,5.5-1.8l21.5,11.1c0.9,0.5,2,0.6,3,0.3
				l27.3-7.5c1-0.3,2.1-0.2,3,0.3l25.2,13c0.9,0.5,2,0.6,3,0.3l27.3-7.5c1-0.3,2.1-0.2,3,0.3l24.4,12.6c2,1,2.8,3.5,1.8,5.5l0,0
				c-1,2-3.5,2.8-5.5,1.8l-21.5-11.1c-0.9-0.5-2-0.6-3-0.3l-27.3,7.5c-1,0.3-2.1,0.2-3-0.3l-25.2-13c-0.9-0.5-2-0.6-3-0.3l-27.3,7.5
				C1082.2,584.3,1081.1,584.2,1080.2,583.7z"/>
		</g>
	</g>
	<g>
		<g>
			<path class="st1" d="M216,993.1l-26.1,8.3c-2.2,0.7-4.5-0.5-5.1-2.7l0,0c-0.7-2.2,0.5-4.5,2.7-5.1l23.1-7.4c1-0.3,1.8-1,2.3-1.9
				l14-24.6c0.5-0.9,1.3-1.6,2.3-1.9l27-8.6c1-0.3,1.8-1,2.3-1.9l14-24.6c0.5-0.9,1.3-1.6,2.3-1.9l26.1-8.3c2.2-0.7,4.5,0.5,5.1,2.7
				l0,0c0.7,2.2-0.5,4.5-2.7,5.1l-23.1,7.4c-1,0.3-1.8,1-2.3,1.9l-14,24.6c-0.5,0.9-1.3,1.6-2.3,1.9l-27,8.6c-1,0.3-1.8,1-2.3,1.9
				l-14,24.6C217.8,992.1,217,992.7,216,993.1z"/>
		</g>
	</g>
	<g>
		<g>
			<path class="st1" d="M1136.8,872.9l-19.2-19.6c-1.6-1.6-1.5-4.2,0.1-5.8l0,0c1.6-1.6,4.2-1.5,5.8,0.1l16.9,17.4
				c0.7,0.7,1.7,1.2,2.7,1.2l28.3,1.5c1,0.1,2,0.5,2.7,1.2l19.8,20.3c0.7,0.7,1.7,1.2,2.7,1.2l28.3,1.5c1,0.1,2,0.5,2.7,1.2
				l19.2,19.6c1.6,1.6,1.5,4.2-0.1,5.8l0,0c-1.6,1.6-4.2,1.5-5.8-0.1l-16.9-17.4c-0.7-0.7-1.7-1.2-2.7-1.2l-28.3-1.5
				c-1-0.1-2-0.5-2.7-1.2l-19.8-20.3c-0.7-0.7-1.7-1.2-2.7-1.2l-28.3-1.5C1138.5,874.1,1137.5,873.6,1136.8,872.9z"/>
		</g>
	</g>
	<g>
		<g>
			<path class="st1" d="M1892.7,793.7l-24.4-12.6c-2-1-2.8-3.5-1.8-5.5l0,0c1-2,3.5-2.8,5.5-1.8l21.5,11.1c0.9,0.5,2,0.6,3,0.3
				l27.3-7.5c1-0.3,2.1-0.2,3,0.3l25.2,13c0.9,0.5,2,0.6,3,0.3l27.3-7.5c1-0.3,2.1-0.2,3,0.3l24.4,12.6c2,1,2.8,3.5,1.8,5.5v0
				c-1,2-3.5,2.8-5.5,1.8l-21.5-11.1c-0.9-0.5-2-0.6-3-0.3l-27.3,7.5c-1,0.3-2.1,0.2-3-0.3l-25.2-13c-0.9-0.5-2-0.6-3-0.3l-27.3,7.5
				C1894.7,794.3,1893.6,794.2,1892.7,793.7z"/>
		</g>
	</g>
	<g>
		<g>
			<path class="st1" d="M1.5,809.3l-24.4-12.6c-2-1-2.8-3.5-1.8-5.5l0,0c1-2,3.5-2.8,5.5-1.8l21.5,11.1c0.9,0.5,2,0.6,3,0.3
				l27.3-7.5c1-0.3,2.1-0.2,3,0.3l25.2,13c0.9,0.5,2,0.6,3,0.3l27.3-7.5c1-0.3,2.1-0.2,3,0.3l24.4,12.6c2,1,2.8,3.5,1.8,5.5l0,0
				c-1,2-3.5,2.8-5.5,1.8l-21.5-11.1c-0.9-0.5-2-0.6-3-0.3l-27.3,7.5c-1,0.3-2.1,0.2-3-0.3l-25.2-13c-0.9-0.5-2-0.6-3-0.3l-27.3,7.5
				C3.5,809.9,2.4,809.7,1.5,809.3z"/>
		</g>
	</g>
	<g>
		<g>
			<path class="st1" d="M453.1,1085.6l-35.2-18.2c-2.9-1.5-4-5.1-2.5-8l0,0c1.5-2.9,5.1-4,8-2.5l31.1,16.1c1.3,0.7,2.8,0.8,4.3,0.4
				l39.4-10.8c1.4-0.4,3-0.2,4.3,0.4l36.3,18.8c1.3,0.7,2.8,0.8,4.3,0.4l39.4-10.8c1.4-0.4,3-0.2,4.3,0.4l35.2,18.2
				c2.9,1.5,4,5.1,2.5,8l0,0c-1.5,2.9-5.1,4-8,2.5l-31.1-16.1c-1.3-0.7-2.8-0.8-4.3-0.4l-39.4,10.8c-1.4,0.4-3,0.2-4.3-0.4
				l-36.3-18.8c-1.3-0.7-2.8-0.8-4.3-0.4l-39.4,10.8C455.9,1086.4,454.4,1086.3,453.1,1085.6z"/>
		</g>
	</g>
</g>
<g class="st0">
	<circle class="st2" cx="673.1" cy="360.4" r="55.3"/>
	<circle class="st2" cx="1738.2" cy="952.5" r="55.3"/>
	<circle class="st2" cx="573.4" cy="700.2" r="43.8"/>
	<circle class="st2" cx="308.3" cy="794.5" r="43.8"/>
	<circle class="st2" cx="791.5" cy="0" r="118.4"/>
	<circle class="st2" cx="992.2" cy="1141.5" r="91.7"/>
	<circle class="st2" cx="878" cy="810.8" r="86.5"/>
	<circle class="st2" cx="1427.8" cy="769" r="86.5"/>
	<circle class="st2" cx="1353.1" cy="135.3" r="67.9"/>
	<circle class="st2" cx="1709.4" cy="471.4" r="70.8"/>
	<circle class="st2" cx="1477.3" cy="333.7" r="49.5"/>
	<path class="st2" d="M1493,1133.5l-44.5-44.5l44.5-44.5c6.3-6.3,6.3-16.6,0-23l0,0c-6.3-6.3-16.6-6.3-23,0l-44.5,44.5l-44.5-44.5
		c-6.3-6.3-16.6-6.3-23,0l0,0c-6.3,6.3-6.3,16.6,0,23l44.5,44.5l-44.5,44.5c-6.3,6.3-6.3,16.6,0,23l0,0c6.3,6.3,16.6,6.3,23,0
		l44.5-44.5l44.5,44.5c6.3,6.3,16.6,6.3,23,0l0,0C1499.4,1150.1,1499.4,1139.8,1493,1133.5z"/>
	<path class="st2" d="M126.4,659.2l-47.8-47.8l47.8-47.8c6.8-6.8,6.8-17.9,0-24.7l0,0c-6.8-6.8-17.9-6.8-24.7,0l-47.8,47.8
		L6.1,538.9c-6.8-6.8-17.9-6.8-24.7,0l0,0c-6.8,6.8-6.8,17.9,0,24.7l47.8,47.8l-47.8,47.8c-6.8,6.8-6.8,17.9,0,24.7l0,0
		c6.8,6.8,17.9,6.8,24.7,0l47.8-47.8l47.8,47.8c6.8,6.8,17.9,6.8,24.7,0l0,0C133.2,677.1,133.2,666,126.4,659.2z"/>
	<path class="st2" d="M564.5,911.5L534,881l30.5-30.5c4.4-4.4,4.4-11.4,0-15.8l0,0c-4.4-4.4-11.4-4.4-15.8,0l-30.5,30.5l-30.5-30.5
		c-4.4-4.4-11.4-4.4-15.8,0l0,0c-4.4,4.4-4.4,11.4,0,15.8l30.5,30.5l-30.5,30.5c-4.4,4.4-4.4,11.4,0,15.8l0,0
		c4.4,4.4,11.4,4.4,15.8,0l30.5-30.5l30.5,30.5c4.4,4.4,11.4,4.4,15.8,0l0,0C568.8,923,568.8,915.9,564.5,911.5z"/>
	<path class="st2" d="M793.3,1000.5l-20.4-20.4l20.4-20.4c2.9-2.9,2.9-7.6,0-10.5l0,0c-2.9-2.9-7.6-2.9-10.5,0l-20.4,20.4
		l-20.4-20.4c-2.9-2.9-7.6-2.9-10.5,0l0,0c-2.9,2.9-2.9,7.6,0,10.5l20.4,20.4l-20.4,20.4c-2.9,2.9-2.9,7.6,0,10.5l0,0
		c2.9,2.9,7.6,2.9,10.5,0l20.4-20.4l20.4,20.4c2.9,2.9,7.6,2.9,10.5,0l0,0C796.2,1008.2,796.2,1003.5,793.3,1000.5z"/>
	<path class="st2" d="M312.1,317l-32.8-32.8l32.8-32.8c4.7-4.7,4.7-12.3,0-16.9l0,0c-4.7-4.7-12.3-4.7-16.9,0l-32.8,32.8l-32.8-32.8
		c-4.7-4.7-12.3-4.7-16.9,0l0,0c-4.7,4.7-4.7,12.3,0,16.9l32.8,32.8L212.6,317c-4.7,4.7-4.7,12.3,0,16.9l0,0
		c4.7,4.7,12.3,4.7,16.9,0l32.8-32.8l32.8,32.8c4.7,4.7,12.3,4.7,16.9,0l0,0C316.8,329.2,316.8,321.7,312.1,317z"/>
	<path class="st2" d="M1043.4,381.8l-21.4-21.4l21.4-21.4c3.1-3.1,3.1-8,0-11.1v0c-3.1-3.1-8-3.1-11.1,0l-21.4,21.4L989.6,328
		c-3.1-3.1-8-3.1-11.1,0l0,0c-3.1,3.1-3.1,8,0,11.1l21.4,21.4l-21.4,21.4c-3.1,3.1-3.1,8,0,11.1v0c3.1,3.1,8,3.1,11.1,0l21.4-21.4
		l21.4,21.4c3.1,3.1,8,3.1,11.1,0l0,0C1046.5,389.8,1046.5,384.9,1043.4,381.8z"/>
	<path class="st2" d="M904.2,538.7l-54.1-15l15-54.1c2.1-7.7-2.4-15.7-10.1-17.8l0,0c-7.7-2.1-15.7,2.4-17.8,10.1l-15,54.1l-54.1-15
		c-7.7-2.1-15.7,2.4-17.8,10.1l0,0c-2.1,7.7,2.4,15.7,10.1,17.8l54.1,15l-15,54.1c-2.1,7.7,2.4,15.7,10.1,17.8l0,0
		c7.7,2.1,15.7-2.4,17.8-10.1l15-54.1l54.1,15c7.7,2.1,15.7-2.4,17.8-10.1l0,0C916.4,548.9,911.9,540.9,904.2,538.7z"/>
	<path class="st2" d="M1700.6,112.7l-55.7,6.5l-6.5-55.7c-0.9-7.9-8.1-13.6-16.1-12.7l0,0c-7.9,0.9-13.6,8.1-12.7,16.1l6.5,55.7
		l-55.7,6.5c-7.9,0.9-13.6,8.1-12.7,16.1l0,0c0.9,7.9,8.1,13.6,16.1,12.7l55.7-6.5l6.5,55.7c0.9,7.9,8.1,13.6,16.1,12.7l0,0
		c7.9-0.9,13.6-8.1,12.7-16.1l-6.5-55.7l55.7-6.5c7.9-0.9,13.6-8.1,12.7-16.1l0,0C1715.7,117.5,1708.6,111.8,1700.6,112.7z"/>
	<path class="st2" d="M1918.3,285.3l-36.5-28.9l28.9-36.5c4.1-5.2,3.2-12.8-2-16.9l0,0c-5.2-4.1-12.8-3.2-16.9,2l-28.9,36.5
		l-36.5-28.9c-5.2-4.1-12.8-3.2-16.9,2l0,0c-4.1,5.2-3.2,12.8,2,16.9l36.5,28.9l-28.9,36.5c-4.1,5.2-3.2,12.8,2,16.9l0,0
		c5.2,4.1,12.8,3.2,16.9-2l28.9-36.5l36.5,28.9c5.2,4.1,12.8,3.2,16.9-2l0,0C1924.4,297,1923.5,289.5,1918.3,285.3z"/>
	<path class="st2" d="M1303.5,530.4l15.9-43.7l43.7,15.9c6.2,2.3,13.1-0.9,15.4-7.2l0,0c2.3-6.2-0.9-13.1-7.2-15.4l-43.7-15.9
		l15.9-43.7c2.3-6.2-0.9-13.1-7.2-15.4l0,0c-6.2-2.3-13.1,0.9-15.4,7.2l-15.9,43.7l-43.7-15.9c-6.2-2.3-13.1,0.9-15.4,7.2l0,0
		c-2.3,6.2,0.9,13.1,7.2,15.4l43.7,15.9l-15.9,43.7c-2.3,6.2,0.9,13.1,7.2,15.4l0,0C1294.3,539.9,1301.2,536.7,1303.5,530.4z"/>
	<path class="st2" d="M1729.5,741l-18.9-50.3l50.3-18.9c7.2-2.7,10.8-10.7,8.1-17.9l0,0c-2.7-7.2-10.7-10.8-17.9-8.1l-50.3,18.9
		l-18.9-50.3c-2.7-7.2-10.7-10.8-17.9-8.1l0,0c-7.2,2.7-10.8,10.7-8.1,17.9l18.9,50.3l-50.3,18.9c-7.2,2.7-10.8,10.7-8.1,17.9v0
		c2.7,7.2,10.7,10.8,17.9,8.1l50.3-18.9l18.9,50.3c2.7,7.2,10.7,10.8,17.9,8.1l0,0C1728.6,756.1,1732.2,748.1,1729.5,741z"/>
	<g>
		<g>
			<path class="st1" d="M75,423.7c0.6,0,1.3,0.1,1.9,0.5l21.5,11.1c0.6,0.3,1.2,0.5,1.9,0.5c0.4,0,0.7,0,1.1-0.1l27.3-7.5
				c0.4-0.1,0.7-0.1,1.1-0.1c0.6,0,1.3,0.2,1.9,0.5l25.2,13c0.6,0.3,1.2,0.5,1.9,0.5c0.4,0,0.7,0,1.1-0.1l27.3-7.5
				c0.4-0.1,0.7-0.1,1.1-0.1c0.6,0,1.3,0.2,1.9,0.5l24.4,12.6c2,1,2.8,3.5,1.8,5.5h0c-0.7,1.4-2.2,2.2-3.6,2.2
				c-0.6,0-1.3-0.1-1.9-0.5l-21.5-11.1c-0.6-0.3-1.2-0.5-1.9-0.5c-0.4,0-0.7,0-1.1,0.1l-27.3,7.5c-0.4,0.1-0.7,0.1-1.1,0.1
				c-0.6,0-1.3-0.2-1.9-0.5l-25.2-13c-0.6-0.3-1.2-0.5-1.9-0.5c-0.4,0-0.7,0-1.1,0.1l-27.3,7.5c-0.4,0.1-0.7,0.1-1.1,0.1
				c-0.6,0-1.3-0.2-1.9-0.5l-24.4-12.6c-2-1-2.8-3.5-1.8-5.5l0,0C72.1,424.5,73.5,423.7,75,423.7 M75,417.7c-3.8,0-7.2,2.1-9,5.5
				c-1.2,2.4-1.5,5.1-0.7,7.7c0.8,2.6,2.6,4.7,5,5.9l24.4,12.6c1.4,0.7,3,1.1,4.6,1.1c0.9,0,1.8-0.1,2.7-0.4l26.6-7.3l24.5,12.7
				c1.4,0.7,3,1.1,4.6,1.1c0.9,0,1.8-0.1,2.7-0.4l26.6-7.3l20.9,10.8c1.4,0.7,3,1.1,4.6,1.1c3.8,0,7.2-2.1,9-5.5
				c1.2-2.4,1.5-5.1,0.7-7.7c-0.8-2.6-2.6-4.7-5-5.9l-24.4-12.6c-1.4-0.7-3-1.1-4.6-1.1c-0.9,0-1.8,0.1-2.7,0.4l-26.6,7.3
				l-24.5-12.7c-1.4-0.7-3-1.1-4.6-1.1c-0.9,0-1.8,0.1-2.7,0.4l-26.6,7.3l-20.9-10.8C78.2,418.1,76.6,417.7,75,417.7L75,417.7z"/>
		</g>
	</g>
	<g>
		<g>
			<path class="st1" d="M387.9,502.4c0.6,0,1.3,0.1,1.9,0.5l21.5,11.1c0.6,0.3,1.2,0.5,1.9,0.5c0.4,0,0.7,0,1.1-0.1l27.3-7.5
				c0.4-0.1,0.7-0.1,1.1-0.1c0.6,0,1.3,0.2,1.9,0.5l25.2,13c0.6,0.3,1.2,0.5,1.9,0.5c0.4,0,0.7,0,1.1-0.1l27.3-7.5
				c0.4-0.1,0.7-0.1,1.1-0.1c0.6,0,1.3,0.2,1.9,0.5l24.4,12.6c2,1,2.8,3.5,1.8,5.5c-0.7,1.4-2.2,2.2-3.6,2.2c-0.6,0-1.3-0.1-1.9-0.5
				L502.1,522c-0.6-0.3-1.2-0.5-1.9-0.5c-0.4,0-0.7,0-1.1,0.1l-27.3,7.5c-0.4,0.1-0.7,0.1-1.1,0.1c-0.6,0-1.3-0.2-1.9-0.5l-25.2-13
				c-0.6-0.3-1.2-0.5-1.9-0.5c-0.4,0-0.7,0-1.1,0.1l-27.3,7.5c-0.4,0.1-0.7,0.1-1.1,0.1c-0.6,0-1.3-0.2-1.9-0.5l-24.4-12.6
				c-2-1-2.8-3.5-1.8-5.5l0,0C385,503.2,386.5,502.4,387.9,502.4 M387.9,496.4c-3.8,0-7.2,2.1-9,5.5c-1.2,2.4-1.5,5.1-0.7,7.7
				s2.6,4.7,5,5.9l24.4,12.6c1.4,0.7,3,1.1,4.6,1.1c0.9,0,1.8-0.1,2.7-0.4l26.6-7.3l24.5,12.7c1.4,0.7,3,1.1,4.6,1.1
				c0.9,0,1.8-0.1,2.7-0.4l26.6-7.3l20.9,10.8c1.4,0.7,3,1.1,4.6,1.1c3.8,0,7.2-2.1,9-5.5c2.6-4.9,0.6-11.1-4.3-13.6L505.8,508
				c-1.4-0.7-3-1.1-4.6-1.1c-0.9,0-1.8,0.1-2.7,0.4l-26.6,7.3l-24.5-12.7c-1.4-0.7-3-1.1-4.6-1.1c-0.9,0-1.8,0.1-2.7,0.4l-26.6,7.3
				l-20.9-10.8C391.2,496.8,389.5,496.4,387.9,496.4L387.9,496.4z"/>
		</g>
	</g>
	<g>
		<g>
			<path class="st1" d="M598.3,129.1c1.7,0,3.3,1.1,3.9,2.9c0.7,2.2-0.5,4.5-2.7,5.1l-23.1,7.4c-1,0.3-1.8,1-2.3,1.9l-14,24.6
				c-0.5,0.9-1.3,1.6-2.3,1.9l-27,8.6c-1,0.3-1.8,1-2.3,1.9l-14,24.6c-0.5,0.9-1.3,1.6-2.3,1.9l-26.1,8.3c-0.4,0.1-0.8,0.2-1.2,0.2
				c-1.7,0-3.3-1.1-3.9-2.9l0,0c-0.7-2.2,0.5-4.5,2.7-5.1l23.1-7.4c1-0.3,1.8-1,2.3-1.9l14-24.6c0.5-0.9,1.3-1.6,2.3-1.9l27-8.6
				c1-0.3,1.8-1,2.3-1.9l14-24.6c0.5-0.9,1.3-1.6,2.3-1.9l26.1-8.3C597.5,129.2,597.9,129.1,598.3,129.1 M598.3,123.1
				c-1,0-2.1,0.2-3.1,0.5l-26.1,8.3c-2.4,0.8-4.5,2.4-5.7,4.6l-13.7,24l-26.3,8.4c-2.4,0.8-4.5,2.4-5.7,4.6l-13.7,24l-22.4,7.1
				c-5.3,1.7-8.2,7.4-6.6,12.7c1.3,4.2,5.2,7,9.6,7c1,0,2.1-0.2,3.1-0.5l26.1-8.3c2.4-0.8,4.5-2.4,5.7-4.6l13.7-24l26.3-8.4
				c2.4-0.8,4.5-2.4,5.7-4.6l13.7-24l22.4-7.1c2.6-0.8,4.7-2.6,5.9-5s1.5-5.1,0.7-7.7C606.6,126,602.7,123.1,598.3,123.1
				L598.3,123.1z"/>
		</g>
	</g>
	<g>
		<g>
			<path class="st1" d="M284.6-4.2c0.9,0,1.9,0.2,2.8,0.7l31.9,16.5c0.9,0.4,1.8,0.7,2.8,0.7c0.5,0,1.1-0.1,1.6-0.2l40.5-11.1
				c0.5-0.1,1.1-0.2,1.6-0.2c1,0,1.9,0.2,2.8,0.7L406,22c0.9,0.4,1.8,0.7,2.8,0.7c0.5,0,1.1-0.1,1.6-0.2l40.5-11.1
				c0.5-0.1,1.1-0.2,1.6-0.2c1,0,1.9,0.2,2.8,0.7l36.1,18.7c3,1.5,4.1,5.2,2.6,8.2c-1.1,2.1-3.2,3.3-5.4,3.3c-0.9,0-1.9-0.2-2.8-0.7
				l-31.9-16.5c-0.9-0.4-1.8-0.7-2.8-0.7c-0.5,0-1.1,0.1-1.6,0.2L409,35.5c-0.5,0.1-1.1,0.2-1.6,0.2c-1,0-1.9-0.2-2.8-0.7
				l-37.3-19.3c-0.9-0.4-1.8-0.7-2.8-0.7c-0.5,0-1.1,0.1-1.6,0.2l-40.5,11.1c-0.5,0.1-1.1,0.2-1.6,0.2c-1,0-1.9-0.2-2.8-0.7
				L281.8,7.2c-3-1.5-4.1-5.2-2.6-8.2l0,0C280.3-3,282.4-4.2,284.6-4.2 M284.6-10.2c-4.5,0-8.7,2.5-10.7,6.5
				c-3.1,5.9-0.7,13.2,5.2,16.3l36.1,18.7c1.7,0.9,3.6,1.3,5.5,1.3c1.1,0,2.2-0.1,3.2-0.4l40.5-11.1l2.8-5.3l-2.8,5.3l37.3,19.3
				c1.7,0.9,3.6,1.3,5.5,1.3c1.1,0,2.2-0.1,3.2-0.4l40.5-11.1l0.1,0l31.9,16.5c1.7,0.9,3.6,1.3,5.5,1.3c4.5,0,8.7-2.5,10.7-6.5
				c3.1-5.9,0.7-13.2-5.2-16.3L458,6.5c-1.7-0.9-3.6-1.3-5.5-1.3c-1.1,0-2.2,0.1-3.2,0.4l-40.5,11.1l-0.1,0L371.4-2.6
				c-1.7-0.9-3.6-1.3-5.5-1.3c-1.1,0-2.2,0.1-3.2,0.4L322.1,7.6l-0.1,0L290.2-8.9C288.5-9.8,286.5-10.2,284.6-10.2L284.6-10.2z"/>
		</g>
	</g>
	<g>
		<g>
			<path class="st1" d="M1015.1,158.2c0.6,0,1.3,0.1,1.9,0.5l21.5,11.1c0.6,0.3,1.2,0.5,1.9,0.5c0.4,0,0.7,0,1.1-0.1l27.3-7.5
				c0.4-0.1,0.7-0.1,1.1-0.1c0.6,0,1.3,0.2,1.9,0.5l25.2,13c0.6,0.3,1.2,0.5,1.9,0.5c0.4,0,0.7,0,1.1-0.1l27.3-7.5
				c0.4-0.1,0.7-0.1,1.1-0.1c0.6,0,1.3,0.2,1.9,0.5l24.4,12.6c2,1,2.8,3.5,1.8,5.5c-0.7,1.4-2.2,2.2-3.6,2.2c-0.6,0-1.3-0.1-1.9-0.5
				l-21.5-11.1c-0.6-0.3-1.2-0.5-1.9-0.5c-0.4,0-0.7,0-1.1,0.1L1099,185c-0.4,0.1-0.7,0.1-1.1,0.1c-0.6,0-1.3-0.2-1.9-0.5l-25.2-13
				c-0.6-0.3-1.2-0.5-1.9-0.5c-0.4,0-0.7,0-1.1,0.1l-27.3,7.5c-0.4,0.1-0.7,0.1-1.1,0.1c-0.6,0-1.3-0.2-1.9-0.5l-24.4-12.6
				c-2-1-2.8-3.5-1.8-5.5l0,0C1012.2,159,1013.6,158.2,1015.1,158.2 M1015.1,152.2c-3.8,0-7.2,2.1-9,5.5c-1.2,2.4-1.5,5.1-0.7,7.7
				s2.6,4.7,5,5.9l24.4,12.6c1.4,0.7,3,1.1,4.6,1.1c0.9,0,1.8-0.1,2.7-0.4l26.6-7.3l24.5,12.7c1.4,0.7,3,1.1,4.6,1.1
				c0.9,0,1.8-0.1,2.7-0.4l26.6-7.3l20.9,10.8c1.4,0.7,3,1.1,4.6,1.1c3.8,0,7.2-2.1,9-5.5c2.6-4.9,0.6-11.1-4.3-13.6l-24.4-12.6
				c-1.4-0.7-3-1.1-4.6-1.1c-0.9,0-1.8,0.1-2.7,0.4l-26.6,7.3l-24.5-12.7c-1.4-0.7-3-1.1-4.6-1.1c-0.9,0-1.8,0.1-2.7,0.4l-26.6,7.3
				l-20.9-10.8C1018.3,152.6,1016.7,152.2,1015.1,152.2L1015.1,152.2z"/>
		</g>
	</g>
	<g>
		<g>
			<path class="st1" d="M1047.7,553.4c0.6,0,1.3,0.1,1.9,0.5l21.5,11.1c0.6,0.3,1.2,0.5,1.9,0.5c0.4,0,0.7,0,1.1-0.1l27.3-7.5
				c0.4-0.1,0.7-0.1,1.1-0.1c0.6,0,1.3,0.2,1.9,0.5l25.2,13c0.6,0.3,1.2,0.5,1.9,0.5c0.4,0,0.7,0,1.1-0.1l27.3-7.5
				c0.4-0.1,0.7-0.1,1.1-0.1c0.6,0,1.3,0.2,1.9,0.5l24.4,12.6c2,1,2.8,3.5,1.8,5.5c-0.7,1.4-2.2,2.2-3.6,2.2c-0.6,0-1.3-0.1-1.9-0.5
				l-21.5-11.1c-0.6-0.3-1.2-0.5-1.9-0.5c-0.4,0-0.7,0-1.1,0.1l-27.3,7.5c-0.4,0.1-0.7,0.1-1.1,0.1c-0.7,0-1.3-0.2-1.9-0.5l-25.2-13
				c-0.6-0.3-1.2-0.5-1.9-0.5c-0.4,0-0.7,0-1.1,0.1l-27.3,7.5c-0.4,0.1-0.7,0.1-1.1,0.1c-0.6,0-1.3-0.2-1.9-0.5l-24.4-12.6
				c-2-1-2.8-3.5-1.8-5.5h0C1044.8,554.2,1046.2,553.4,1047.7,553.4 M1047.7,547.4c-3.8,0-7.2,2.1-9,5.5c-1.2,2.4-1.5,5.1-0.7,7.7
				c0.8,2.6,2.6,4.7,5,5.9l24.4,12.6c1.4,0.7,3,1.1,4.6,1.1c0.9,0,1.8-0.1,2.7-0.4l26.6-7.3l24.5,12.7c1.4,0.7,3,1.1,4.6,1.1
				c0.9,0,1.8-0.1,2.7-0.4l26.6-7.3l20.9,10.8c1.4,0.7,3,1.1,4.6,1.1c3.8,0,7.2-2.1,9-5.5c1.2-2.4,1.5-5.1,0.7-7.7
				c-0.8-2.6-2.6-4.7-5-5.9l-24.4-12.6c-1.4-0.7-3-1.1-4.6-1.1c-0.9,0-1.8,0.1-2.7,0.4l-26.6,7.3l-24.5-12.7c-1.4-0.7-3-1.1-4.6-1.1
				c-0.9,0-1.8,0.1-2.7,0.4l-26.6,7.3l-20.9-10.8C1050.9,547.7,1049.3,547.4,1047.7,547.4L1047.7,547.4z"/>
		</g>
	</g>
	<g>
		<g>
			<path class="st1" d="M292.2,902.3c1.7,0,3.3,1.1,3.9,2.9c0.7,2.2-0.5,4.5-2.7,5.1l-23.1,7.4c-1,0.3-1.8,1-2.3,1.9l-14,24.6
				c-0.5,0.9-1.3,1.6-2.3,1.9l-27,8.6c-1,0.3-1.8,1-2.3,1.9l-14,24.6c-0.5,0.9-1.3,1.6-2.3,1.9l-26.1,8.3c-0.4,0.1-0.8,0.2-1.2,0.2
				c-1.7,0-3.3-1.1-3.9-2.9l0,0c-0.7-2.2,0.5-4.5,2.7-5.1l23.1-7.4c1-0.3,1.8-1,2.3-1.9l14-24.6c0.5-0.9,1.3-1.6,2.3-1.9l27-8.6
				c1-0.3,1.8-1,2.3-1.9l14-24.6c0.5-0.9,1.3-1.6,2.3-1.9l26.1-8.3C291.4,902.4,291.8,902.3,292.2,902.3 M292.2,896.3L292.2,896.3
				c-1,0-2.1,0.2-3.1,0.5l-26.1,8.3c-2.4,0.8-4.5,2.4-5.7,4.6l-13.7,24l-26.3,8.4c-2.4,0.8-4.5,2.4-5.7,4.6l-13.7,24l-22.4,7.1
				c-2.6,0.8-4.7,2.6-5.9,5c-1.2,2.4-1.5,5.1-0.7,7.7c1.3,4.2,5.2,7,9.6,7c1,0,2.1-0.2,3.1-0.5l26.1-8.3c2.4-0.8,4.5-2.4,5.7-4.6
				l13.7-24l26.3-8.4c2.4-0.8,4.5-2.4,5.7-4.6l13.7-24l22.4-7.1c2.6-0.8,4.7-2.6,5.9-5c1.2-2.4,1.5-5.1,0.7-7.7
				C300.5,899.2,296.6,896.3,292.2,896.3L292.2,896.3z"/>
		</g>
	</g>
	<g>
		<g>
			<path class="st1" d="M1110.6,836.3c1.1,0,2.1,0.4,2.9,1.2l16.9,17.4c0.7,0.7,1.7,1.2,2.7,1.2l28.3,1.5c1,0.1,2,0.5,2.7,1.2
				l19.8,20.3c0.7,0.7,1.7,1.2,2.7,1.2l28.3,1.5c1,0.1,2,0.5,2.7,1.2l19.2,19.6c1.6,1.6,1.5,4.2-0.1,5.8c-0.8,0.8-1.8,1.2-2.9,1.2
				c-1.1,0-2.1-0.4-2.9-1.2l-16.9-17.4c-0.7-0.7-1.7-1.2-2.7-1.2l-28.3-1.5c-1-0.1-2-0.5-2.7-1.2l-19.8-20.3
				c-0.7-0.7-1.7-1.2-2.7-1.2l-28.3-1.5c-1-0.1-2-0.5-2.7-1.2l-19.2-19.6c-1.6-1.6-1.5-4.2,0.1-5.8l0,0
				C1108.5,836.7,1109.6,836.3,1110.6,836.3 M1110.6,830.3L1110.6,830.3c-2.6,0-5.2,1-7.1,2.9c-1.9,1.9-3,4.4-3,7.1
				c0,2.7,1,5.2,2.9,7.2l19.2,19.6c1.8,1.8,4.2,2.9,6.7,3l27.6,1.5l19.3,19.8c1.8,1.8,4.2,2.9,6.7,3l27.6,1.5l16.4,16.8
				c1.9,2,4.5,3,7.2,3c2.6,0,5.2-1,7.1-2.9c4-3.9,4.1-10.3,0.2-14.3l-19.2-19.6c-1.8-1.8-4.2-2.9-6.7-3l-27.6-1.5l-19.3-19.8
				c-1.8-1.8-4.2-2.9-6.7-3l-27.6-1.5l-16.4-16.8C1115.9,831.4,1113.4,830.3,1110.6,830.3L1110.6,830.3z"/>
		</g>
	</g>
	<g>
		<g>
			<path class="st1" d="M1860.2,763.3c0.6,0,1.3,0.1,1.9,0.5l21.5,11.1c0.6,0.3,1.2,0.5,1.9,0.5c0.4,0,0.7,0,1.1-0.1l27.3-7.5
				c0.4-0.1,0.7-0.1,1.1-0.1c0.6,0,1.3,0.2,1.9,0.5l25.2,13c0.6,0.3,1.2,0.5,1.9,0.5c0.4,0,0.7,0,1.1-0.1l27.3-7.5
				c0.4-0.1,0.7-0.1,1.1-0.1c0.6,0,1.3,0.2,1.9,0.5l24.4,12.6c2,1,2.8,3.5,1.8,5.5c-0.7,1.4-2.2,2.2-3.6,2.2c-0.6,0-1.3-0.1-1.9-0.5
				l-21.5-11.1c-0.6-0.3-1.2-0.5-1.9-0.5c-0.4,0-0.7,0-1.1,0.1l-27.3,7.5c-0.4,0.1-0.7,0.1-1.1,0.1c-0.6,0-1.3-0.2-1.9-0.5l-25.2-13
				c-0.6-0.3-1.2-0.5-1.9-0.5c-0.4,0-0.7,0-1.1,0.1l-27.3,7.5c-0.4,0.1-0.7,0.1-1.1,0.1c-0.6,0-1.3-0.2-1.9-0.5l-24.4-12.6
				c-2-1-2.8-3.5-1.8-5.5l0,0C1857.3,764.1,1858.7,763.3,1860.2,763.3 M1860.2,757.3c-3.8,0-7.2,2.1-9,5.5
				c-2.6,4.9-0.6,11.1,4.3,13.6l24.4,12.6c1.4,0.7,3,1.1,4.6,1.1c0.9,0,1.8-0.1,2.7-0.4l26.6-7.3l24.5,12.7c1.4,0.7,3,1.1,4.6,1.1
				c0.9,0,1.8-0.1,2.7-0.4l26.6-7.3l20.9,10.8c1.4,0.7,3,1.1,4.6,1.1c3.8,0,7.2-2.1,9-5.5c2.6-4.9,0.6-11.1-4.3-13.6l-24.4-12.6
				c-1.4-0.7-3-1.1-4.6-1.1c-0.9,0-1.8,0.1-2.7,0.4l-26.6,7.3l-24.5-12.7c-1.4-0.7-3-1.1-4.6-1.1c-0.9,0-1.8,0.1-2.7,0.4l-26.6,7.3
				l-20.9-10.8C1863.4,757.7,1861.8,757.3,1860.2,757.3L1860.2,757.3z"/>
		</g>
	</g>
	<g>
		<g>
			<path class="st1" d="M-31,778.9c0.6,0,1.3,0.1,1.9,0.5l21.5,11.1c0.6,0.3,1.2,0.5,1.9,0.5c0.4,0,0.7,0,1.1-0.1l27.3-7.5
				c0.4-0.1,0.7-0.1,1.1-0.1c0.6,0,1.3,0.2,1.9,0.5l25.2,13c0.6,0.3,1.2,0.5,1.9,0.5c0.4,0,0.7,0,1.1-0.1l27.3-7.5
				c0.4-0.1,0.7-0.1,1.1-0.1c0.6,0,1.3,0.2,1.9,0.5l24.4,12.6c2,1,2.8,3.5,1.8,5.5c-0.7,1.4-2.2,2.2-3.6,2.2c-0.6,0-1.3-0.1-1.9-0.5
				l-21.5-11.1c-0.6-0.3-1.2-0.5-1.9-0.5c-0.4,0-0.7,0-1.1,0.1l-27.3,7.5c-0.4,0.1-0.7,0.1-1.1,0.1c-0.6,0-1.3-0.2-1.9-0.5l-25.2-13
				c-0.6-0.3-1.2-0.5-1.9-0.5c-0.4,0-0.7,0-1.1,0.1l-27.3,7.5c-0.4,0.1-0.7,0.1-1.1,0.1c-0.6,0-1.3-0.2-1.9-0.5l-24.4-12.6
				c-2-1-2.8-3.5-1.8-5.5l0,0C-33.9,779.7-32.5,778.9-31,778.9 M-31,772.9c-3.8,0-7.2,2.1-9,5.5c-2.6,4.9-0.6,11.1,4.3,13.6
				l24.4,12.6c1.4,0.7,3,1.1,4.6,1.1c0.9,0,1.8-0.1,2.7-0.4l26.6-7.3l24.5,12.7c1.4,0.7,3,1.1,4.6,1.1c0.9,0,1.8-0.1,2.7-0.4
				l26.6-7.3L102,815c1.4,0.7,3,1.1,4.6,1.1c3.8,0,7.2-2.1,9-5.5c2.6-4.9,0.6-11.1-4.3-13.6l-24.4-12.6c-1.4-0.7-3-1.1-4.6-1.1
				c-0.9,0-1.8,0.1-2.7,0.4L53,791l-24.5-12.7c-1.4-0.7-3-1.1-4.6-1.1c-0.9,0-1.8,0.1-2.7,0.4l-26.6,7.3l-20.9-10.8
				C-27.8,773.3-29.4,772.9-31,772.9L-31,772.9z"/>
		</g>
	</g>
	<g>
		<g>
			<path class="st1" d="M410.6,1046.2c0.9,0,1.8,0.2,2.7,0.7l31.1,16.1c0.8,0.4,1.8,0.7,2.7,0.7c0.5,0,1.1-0.1,1.6-0.2l39.4-10.8
				c0.5-0.1,1-0.2,1.6-0.2c0.9,0,1.9,0.2,2.7,0.7l36.3,18.8c0.8,0.4,1.8,0.7,2.7,0.7c0.5,0,1.1-0.1,1.6-0.2l39.4-10.8
				c0.5-0.1,1-0.2,1.6-0.2c0.9,0,1.9,0.2,2.7,0.7l35.2,18.2c2.9,1.5,4,5.1,2.5,8v0c-1.1,2-3.1,3.2-5.3,3.2c-0.9,0-1.8-0.2-2.7-0.7
				l-31.1-16.1c-0.8-0.4-1.8-0.7-2.7-0.7c-0.5,0-1.1,0.1-1.6,0.2l-39.4,10.8c-0.5,0.1-1,0.2-1.6,0.2c-0.9,0-1.9-0.2-2.7-0.7
				l-36.3-18.8c-0.8-0.4-1.8-0.7-2.7-0.7c-0.5,0-1.1,0.1-1.6,0.2l-39.4,10.8c-0.5,0.1-1,0.2-1.6,0.2c-0.9,0-1.9-0.2-2.7-0.7
				l-35.2-18.2c-2.9-1.5-4-5.1-2.5-8l0,0C406.4,1047.4,408.5,1046.2,410.6,1046.2 M410.6,1040.2c-4.5,0-8.5,2.5-10.6,6.4
				c-1.5,2.8-1.7,6.1-0.8,9.1c1,3,3.1,5.5,5.9,7l35.2,18.2c1.7,0.9,3.6,1.3,5.5,1.3c1.1,0,2.1-0.1,3.2-0.4l39.4-10.8l36.3,18.8
				c1.7,0.9,3.6,1.3,5.5,1.3c1.1,0,2.1-0.1,3.2-0.4l39.4-10.8l31,16c1.7,0.9,3.6,1.3,5.5,1.3c4.5,0,8.5-2.5,10.6-6.4
				c1.5-2.8,1.7-6.1,0.8-9.1c-1-3-3.1-5.5-5.9-7l-35.2-18.2c-1.7-0.9-3.6-1.3-5.5-1.3c-1.1,0-2.1,0.1-3.2,0.4l-39.4,10.8l-36.3-18.8
				c-1.7-0.9-3.6-1.3-5.5-1.3c-1.1,0-2.1,0.1-3.2,0.4l-39.4,10.8l-31-16C414.4,1040.7,412.5,1040.2,410.6,1040.2L410.6,1040.2z"/>
		</g>
	</g>
</g>
</svg>
