<?xml version="1.0" encoding="utf-8"?>
<!-- Generator: Adobe Illustrator 23.0.3, SVG Export Plug-In . SVG Version: 6.00 Build 0)  -->
<svg version="1.1" id="Layer_1" xmlns="http://www.w3.org/2000/svg" xmlns:xlink="http://www.w3.org/1999/xlink" x="0px" y="0px"
	 viewBox="0 0 500 500" style="enable-background:new 0 0 500 500;" xml:space="preserve">
<style type="text/css">
	.st0{fill:#FFFFFF;}
	.st1{fill:#15141C;}
	.st2{fill:#414182;stroke:#15141C;stroke-width:15;stroke-miterlimit:10;}
</style>
<path class="st0" d="M23.7,468.8c-9.1,0-16.5-7.4-16.5-16.5V47.7c0-9.1,7.4-16.5,16.5-16.5h452.5c9.1,0,16.5,7.4,16.5,16.5v404.7
	c0,9.1-7.4,16.5-16.5,16.5H23.7V468.8z"/>
<path class="st1" d="M476.3,38.7c4.9,0,9,4,9,9v404.7c0,4.9-4,9-9,9H23.7c-4.9,0-9-4-9-9V47.7c0-4.9,4-9,9-9H476.3 M476.3,23.7H23.7
	c-13.2,0-24,10.7-24,24v404.7c0,13.2,10.7,24,24,24h452.5c13.2,0,24-10.7,24-24V47.7C500.2,34.4,489.5,23.7,476.3,23.7L476.3,23.7z"
	/>
<path class="st2" d="M493.9,201.7H6.3V50.9c0-10.6,8.6-19.2,19.2-19.2h449.3c10.6,0,19.2,8.6,19.2,19.2v150.8H493.9z"/>
<path class="st1" d="M100,94.9L100,94.9c-11.2,0-20.2-9.1-20.2-20.2V20.2C79.8,9.1,88.8,0,100,0l0,0c11.2,0,20.2,9.1,20.2,20.2v54.4
	C120.3,85.8,111.2,94.9,100,94.9z"/>
<path class="st1" d="M250,94.9L250,94.9c-11.2,0-20.2-9.1-20.2-20.2V20.2c0-11.1,9-20.2,20.2-20.2l0,0c11.2,0,20.2,9.1,20.2,20.2
	v54.4C270.2,85.8,261.2,94.9,250,94.9z"/>
<path class="st1" d="M400,94.9L400,94.9c-11.2,0-20.2-9.1-20.2-20.2V20.2C379.7,9.1,388.8,0,400,0l0,0c11.2,0,20.2,9.1,20.2,20.2
	v54.4C420.2,85.8,411.2,94.9,400,94.9z"/>
<g>
	<path class="st1" d="M115.5,280.1H99c-5.4,0-9.8-4.4-9.8-9.8v-19.5c0-5.4,4.4-9.8,9.8-9.8h16.5c5.4,0,9.8,4.4,9.8,9.8v19.5
		C125.3,275.7,120.9,280.1,115.5,280.1z"/>
	<path class="st1" d="M115.5,358.6H99c-5.4,0-9.8-4.4-9.8-9.8v-19.5c0-5.4,4.4-9.8,9.8-9.8h16.5c5.4,0,9.8,4.4,9.8,9.8v19.5
		C125.3,354.2,120.9,358.6,115.5,358.6z"/>
	<path class="st1" d="M115.5,437.1H99c-5.4,0-9.8-4.4-9.8-9.8v-19.5c0-5.4,4.4-9.8,9.8-9.8h16.5c5.4,0,9.8,4.4,9.8,9.8v19.5
		C125.3,432.7,120.9,437.1,115.5,437.1z"/>
	<path class="st1" d="M186.9,280.1h-16.5c-5.4,0-9.8-4.4-9.8-9.8v-19.5c0-5.4,4.4-9.8,9.8-9.8h16.5c5.4,0,9.8,4.4,9.8,9.8v19.5
		C196.7,275.7,192.3,280.1,186.9,280.1z"/>
	<path class="st1" d="M186.9,358.6h-16.5c-5.4,0-9.8-4.4-9.8-9.8v-19.5c0-5.4,4.4-9.8,9.8-9.8h16.5c5.4,0,9.8,4.4,9.8,9.8v19.5
		C196.7,354.2,192.3,358.6,186.9,358.6z"/>
	<path class="st1" d="M186.9,437.1h-16.5c-5.4,0-9.8-4.4-9.8-9.8v-19.5c0-5.4,4.4-9.8,9.8-9.8h16.5c5.4,0,9.8,4.4,9.8,9.8v19.5
		C196.7,432.7,192.3,437.1,186.9,437.1z"/>
	<path class="st1" d="M258.2,280.1h-16.5c-5.4,0-9.8-4.4-9.8-9.8v-19.5c0-5.4,4.4-9.8,9.8-9.8h16.5c5.4,0,9.8,4.4,9.8,9.8v19.5
		C268.1,275.7,263.7,280.1,258.2,280.1z"/>
	<path class="st1" d="M258.2,358.6h-16.5c-5.4,0-9.8-4.4-9.8-9.8v-19.5c0-5.4,4.4-9.8,9.8-9.8h16.5c5.4,0,9.8,4.4,9.8,9.8v19.5
		C268.1,354.2,263.7,358.6,258.2,358.6z"/>
	<path class="st1" d="M258.2,437.1h-16.5c-5.4,0-9.8-4.4-9.8-9.8v-19.5c0-5.4,4.4-9.8,9.8-9.8h16.5c5.4,0,9.8,4.4,9.8,9.8v19.5
		C268.1,432.7,263.7,437.1,258.2,437.1z"/>
	<path class="st1" d="M329.6,280.1h-16.5c-5.4,0-9.8-4.4-9.8-9.8v-19.5c0-5.4,4.4-9.8,9.8-9.8h16.5c5.4,0,9.8,4.4,9.8,9.8v19.5
		C339.5,275.7,335.1,280.1,329.6,280.1z"/>
	<path class="st1" d="M329.6,358.6h-16.5c-5.4,0-9.8-4.4-9.8-9.8v-19.5c0-5.4,4.4-9.8,9.8-9.8h16.5c5.4,0,9.8,4.4,9.8,9.8v19.5
		C339.5,354.2,335.1,358.6,329.6,358.6z"/>
	<path class="st1" d="M329.6,437.1h-16.5c-5.4,0-9.8-4.4-9.8-9.8v-19.5c0-5.4,4.4-9.8,9.8-9.8h16.5c5.4,0,9.8,4.4,9.8,9.8v19.5
		C339.5,432.7,335.1,437.1,329.6,437.1z"/>
	<path class="st1" d="M401,280.1h-16.5c-5.4,0-9.8-4.4-9.8-9.8v-19.5c0-5.4,4.4-9.8,9.8-9.8H401c5.4,0,9.8,4.4,9.8,9.8v19.5
		C410.9,275.7,406.5,280.1,401,280.1z"/>
	<path class="st1" d="M401,358.6h-16.5c-5.4,0-9.8-4.4-9.8-9.8v-19.5c0-5.4,4.4-9.8,9.8-9.8H401c5.4,0,9.8,4.4,9.8,9.8v19.5
		C410.9,354.2,406.5,358.6,401,358.6z"/>
	<path class="st1" d="M401,437.1h-16.5c-5.4,0-9.8-4.4-9.8-9.8v-19.5c0-5.4,4.4-9.8,9.8-9.8H401c5.4,0,9.8,4.4,9.8,9.8v19.5
		C410.9,432.7,406.5,437.1,401,437.1z"/>
</g>
</svg>
