<?xml version="1.0" encoding="utf-8"?>
<!-- Generator: Adobe Illustrator 23.0.3, SVG Export Plug-In . SVG Version: 6.00 Build 0)  -->
<svg version="1.1" id="Layer_1" xmlns="http://www.w3.org/2000/svg" xmlns:xlink="http://www.w3.org/1999/xlink" x="0px" y="0px"
	 viewBox="0 0 500 500" style="enable-background:new 0 0 500 500;" xml:space="preserve">
<style type="text/css">
	.st0{fill:#837EF0;}
</style>
<path id="cloud_icon" class="st0" d="M100,393.3c-13.4-0.1-26.7-2.9-39-8.2c-11.9-5.1-22.7-12.5-31.8-21.7
	c-9.1-9.2-16.4-20.1-21.4-32C2.6,319,0,305.7,0,292.2c0-13.5,2.7-26.9,7.9-39.4c5.1-12,12.4-22.9,21.7-32.1
	c9.2-9.2,20.1-16.6,32.1-21.7c12.5-5.3,25.8-8,39.4-7.9c4.4,0,8.9,0.3,13.3,0.9c11-25,28.9-46.3,51.6-61.5
	c23.2-15.6,50.6-23.8,78.5-23.8c19,0,37.7,3.8,55.2,11.2c16.9,7.2,32.2,17.5,45.1,30.6c13,13,23.4,28.4,30.5,45.3
	c7.5,17.6,11.3,36.5,11.4,55.5c15,1.6,29.1,7.9,40.3,17.9c11.2,9.9,19,23.1,22.3,37.7c2.1-0.3,4.2-0.4,6.3-0.4
	c24.5,0,44.4,19.9,44.4,44.4c0,11.4-4.4,22.4-12.3,30.7c-7.8,8.2-18.6,13.2-29.9,13.7v0H299.6c-10.7,0-19.4-8.7-19.4-19.4v-58.2
	c0-2.2,1.8-4,4-4h17.3c2.6,0,3.9-3.2,2.1-5l-53.4-53.4c-1.2-1.2-3-1.2-4.2,0l-53.4,53.4c-1.9,1.9-0.5,5,2.1,5h17.3c2.2,0,4,1.8,4,4
	v58.2c0,10.7-8.7,19.4-19.4,19.4L100,393.3z"/>
</svg>
