<?xml version="1.0" encoding="utf-8"?>
<!-- Generator: Adobe Illustrator 23.0.3, SVG Export Plug-In . SVG Version: 6.00 Build 0)  -->
<svg version="1.1" id="Layer_1" xmlns="http://www.w3.org/2000/svg" xmlns:xlink="http://www.w3.org/1999/xlink" x="0px" y="0px"
	 viewBox="0 0 500 500" style="enable-background:new 0 0 500 500;" xml:space="preserve">
<style type="text/css">
	.st0{fill:#837EF0;}
</style>
<path class="st0" d="M246.9,238.6l-224-160c-3.1-2.2-1.6-7.1,2.2-7.1c0,0,0.1,0,0.1,0h449.6c0,0,0.1,0,0.1,0c3.8,0,5.3,4.9,2.2,7.1
	l-224,160C251.2,239.9,248.8,239.9,246.9,238.6z"/>
<path class="st0" d="M500,96.6v306.7c0,13.9-11.3,25.2-25.2,25.2H25.2C11.3,428.6,0,417.3,0,403.4V96.6c0-3.1,0.5-6,1.6-8.7
	c0.9-2.4,3.9-3.4,6-1.8l230.6,164.7c3.5,2.5,7.7,3.8,11.8,3.8s8.3-1.3,11.8-3.8L492.5,86c2.1-1.5,5.1-0.6,6,1.8
	C499.5,90.6,500,93.6,500,96.6z"/>
</svg>
