<?xml version="1.0" encoding="utf-8"?>
<!-- Generator: Adobe Illustrator 23.0.3, SVG Export Plug-In . SVG Version: 6.00 Build 0)  -->
<svg version="1.1" id="Layer_1" xmlns="http://www.w3.org/2000/svg" xmlns:xlink="http://www.w3.org/1999/xlink" x="0px" y="0px"
	 viewBox="0 0 500 500" style="enable-background:new 0 0 500 500;" xml:space="preserve">
<style type="text/css">
	.st0{fill:#414182;}
</style>
<g>
	<path class="st0" d="M461.9,317.2c-1.9-0.7-2.1-3.3-0.4-4.2c8-4.5,14.3-11.7,17.4-20.5c7.5-20.7-4.1-43.7-25.6-49.8
		c-18.8-5.3-38.8,4.6-46,22.8s0.5,38.4,17,47.5c1.8,1,1.6,3.6-0.3,4.3c-17.1,5.8-30.6,19.3-36.5,36.3c-1,2.8,1.1,5.8,4.1,5.8h102.7
		c3,0,5-2.9,4.1-5.8C492.4,336.5,479,323,461.9,317.2z"/>
	<path class="st0" d="M280.7,279.9c-2-0.6-2.3-3.4-0.4-4.3c16.9-8,30-22.3,36.4-40c13.5-37.3-6.4-78.6-44.2-91.2
		c-35.9-12-75.3,6.8-88.6,42.1c-13.2,34.9,2.9,73.5,35.9,89.1c2,0.9,1.8,3.8-0.3,4.4c-29.3,8.6-53.3,29.1-66.6,56
		c-5.3,10.7,2.6,23.3,14.6,23.3h165.4c12,0,19.9-12.6,14.6-23.3C334,309,309.9,288.6,280.7,279.9z"/>
	<path class="st0" d="M76,317.2c-1.9-0.7-2.1-3.3-0.4-4.2c8-4.5,14.3-11.7,17.4-20.5c7.5-20.7-4.1-43.7-25.6-49.8
		c-18.8-5.3-38.8,4.6-46,22.8s0.5,38.4,17,47.5c1.8,1,1.6,3.6-0.3,4.3C21,323,7.6,336.5,1.7,353.5c-1,2.8,1.1,5.8,4.1,5.8h102.7
		c3,0,5-2.9,4.1-5.8C106.6,336.5,93.1,323,76,317.2z"/>
</g>
</svg>
